<svg width="60" height="60" viewBox="0 0 60 60" fill="none" xmlns="http://www.w3.org/2000/svg"><path d="M7.5 52.5V17.625H22.9375V11.875L30 5.00001L37.0625 11.875V28H52.5V52.5H7.5ZM11.25 48.75H17.875V42.125H11.25V48.75ZM11.25 38.375H17.875V31.75H11.25V38.375ZM11.25 28H17.875V21.375H11.25V28ZM26.6875 48.75H33.3125V42.125H26.6875V48.75ZM26.6875 38.375H33.3125V31.75H26.6875V38.375ZM26.6875 28H33.3125V21.375H26.6875V28ZM26.6875 17.625H33.3125V11H26.6875V17.625ZM42.125 48.75H48.75V42.125H42.125V48.75ZM42.125 38.375H48.75V31.75H42.125V38.375Z" fill="#E8EAED"/></svg>