<svg width="60" height="60" viewBox="0 0 60 60" fill="none" xmlns="http://www.w3.org/2000/svg"><path d="M7.5 33.75L27.5 5V33.75H7.5ZM17.0625 28.75H22.5V20.9375L17.0625 28.75ZM31.25 33.75C31.75 32.5833 32.2917 30.5417 32.875 27.625C33.4583 24.7083 33.75 21.75 33.75 18.75C33.75 15.75 33.4688 12.6667 32.9062 9.5C32.3438 6.33333 31.7917 4 31.25 2.5C33.7917 3.25 36.3229 4.64583 38.8438 6.6875C41.3646 8.72917 43.6354 11.1667 45.6562 14C47.6771 16.8333 49.3229 19.9479 50.5938 23.3438C51.8646 26.7396 52.5 30.2083 52.5 33.75H31.25ZM37.75 28.75H47C46.2917 25.5417 45.1354 22.6042 43.5312 19.9375C41.9271 17.2708 40.2292 15 38.4375 13.125C38.5208 14 38.5938 14.9062 38.6562 15.8438C38.7188 16.7812 38.75 17.75 38.75 18.75C38.75 20.7083 38.6562 22.5208 38.4688 24.1875C38.2812 25.8542 38.0417 27.375 37.75 28.75ZM22.5 47.5C21 47.5 19.6042 47.1458 18.3125 46.4375C17.0208 45.7292 15.9167 44.8333 15 43.75C14.4167 44.375 13.7812 44.9583 13.0938 45.5C12.4062 46.0417 11.6458 46.4792 10.8125 46.8125C9.35417 45.7292 8.11458 44.3854 7.09375 42.7812C6.07292 41.1771 5.375 39.4167 5 37.5H55C54.625 39.4167 53.9271 41.1771 52.9062 42.7812C51.8854 44.3854 50.6458 45.7292 49.1875 46.8125C48.3542 46.4792 47.5938 46.0417 46.9062 45.5C46.2188 44.9583 45.5833 44.375 45 43.75C44.0417 44.8333 42.9271 45.7292 41.6562 46.4375C40.3854 47.1458 39 47.5 37.5 47.5C36 47.5 34.6042 47.1458 33.3125 46.4375C32.0208 45.7292 30.9167 44.8333 30 43.75C29.0833 44.8333 27.9792 45.7292 26.6875 46.4375C25.3958 47.1458 24 47.5 22.5 47.5ZM5 57.5V52.5H7.5C8.83333 52.5 10.1354 52.2917 11.4062 51.875C12.6771 51.4583 13.875 50.8333 15 50C16.125 50.8333 17.3229 51.4479 18.5938 51.8438C19.8646 52.2396 21.1667 52.4375 22.5 52.4375C23.8333 52.4375 25.125 52.2396 26.375 51.8438C27.625 51.4479 28.8333 50.8333 30 50C31.125 50.8333 32.3229 51.4479 33.5938 51.8438C34.8646 52.2396 36.1667 52.4375 37.5 52.4375C38.8333 52.4375 40.125 52.2396 41.375 51.8438C42.625 51.4479 43.8333 50.8333 45 50C46.1667 50.8333 47.375 51.4583 48.625 51.875C49.875 52.2917 51.1667 52.5 52.5 52.5H55V57.5H52.5C51.2083 57.5 49.9375 57.3438 48.6875 57.0312C47.4375 56.7188 46.2083 56.25 45 55.625C43.7917 56.25 42.5625 56.7188 41.3125 57.0312C40.0625 57.3438 38.7917 57.5 37.5 57.5C36.2083 57.5 34.9375 57.3438 33.6875 57.0312C32.4375 56.7188 31.2083 56.25 30 55.625C28.7917 56.25 27.5625 56.7188 26.3125 57.0312C25.0625 57.3438 23.7917 57.5 22.5 57.5C21.2083 57.5 19.9375 57.3438 18.6875 57.0312C17.4375 56.7188 16.2083 56.25 15 55.625C13.7917 56.25 12.5625 56.7188 11.3125 57.0312C10.0625 57.3438 8.79167 57.5 7.5 57.5H5Z" fill="#E8EAED"/></svg>