<svg xmlns="http://www.w3.org/2000/svg" width="60" height="60" viewBox="0 0 60 60" fill="none">
<g clip-path="url(#clip0_285_107)">
<path d="M9.44625 20.6813C10.1696 18.9938 11.3726 17.5558 12.9059 16.5458C14.4392 15.5359 16.2352 14.9984 18.0713 15H41.9287C45.6787 15 49.0687 17.235 50.5462 20.6813L53.5163 27.6113C53.7975 28.2675 54.3037 28.8075 54.9412 29.1263C56.8162 30.0638 58.1475 31.8075 58.56 33.8588L59.8162 40.155C59.9412 40.76 60.0025 41.3725 60 41.9925V43.5413C60 46.5938 58.5375 49.3275 56.25 51.03V58.125C56.25 58.6223 56.0525 59.0992 55.7008 59.4508C55.3492 59.8025 54.8723 60 54.375 60H46.875C46.3777 60 45.9008 59.8025 45.5492 59.4508C45.1975 59.0992 45 58.6223 45 58.125V53.1075C40.155 53.2875 34.7062 53.4375 30 53.4375C25.2938 53.4375 19.845 53.2875 15 53.1075V58.125C15 58.6223 14.8025 59.0992 14.4508 59.4508C14.0992 59.8025 13.6223 60 13.125 60H5.625C5.12772 60 4.65081 59.8025 4.29917 59.4508C3.94754 59.0992 3.75 58.6223 3.75 58.125V51.03C1.4625 49.3275 0 46.5938 0 43.5413V41.9925C0.000629364 41.3754 0.0621779 40.76 0.18375 40.155L1.44 33.855C1.8525 31.8075 3.18375 30.06 5.055 29.1263C5.69687 28.808 6.20367 28.2706 6.48375 27.6113L9.45375 20.6813H9.44625ZM11.2463 45C12.2408 45 13.1946 44.6049 13.8979 43.9017C14.6012 43.1984 14.9963 42.2446 14.9963 41.25C14.9963 40.2554 14.6012 39.3016 13.8979 38.5984C13.1946 37.8951 12.2408 37.5 11.2463 37.5C10.2517 37.5 9.29786 37.8951 8.5946 38.5984C7.89134 39.3016 7.49625 40.2554 7.49625 41.25C7.49625 42.2446 7.89134 43.1984 8.5946 43.9017C9.29786 44.6049 10.2517 45 11.2463 45ZM48.7463 45C49.7408 45 50.6946 44.6049 51.3979 43.9017C52.1012 43.1984 52.4963 42.2446 52.4963 41.25C52.4963 40.2554 52.1012 39.3016 51.3979 38.5984C50.6946 37.8951 49.7408 37.5 48.7463 37.5C47.7517 37.5 46.7979 37.8951 46.0946 38.5984C45.3913 39.3016 44.9963 40.2554 44.9963 41.25C44.9963 42.2446 45.3913 43.1984 46.0946 43.9017C46.7979 44.6049 47.7517 45 48.7463 45ZM22.4963 37.5C21.5017 37.5 20.5479 37.8951 19.8446 38.5984C19.1413 39.3016 18.7463 40.2554 18.7463 41.25C18.7463 42.2446 19.1413 43.1984 19.8446 43.9017C20.5479 44.6049 21.5017 45 22.4963 45H37.4963C38.4908 45 39.4446 44.6049 40.1479 43.9017C40.8512 43.1984 41.2463 42.2446 41.2463 41.25C41.2463 40.2554 40.8512 39.3016 40.1479 38.5984C39.4446 37.8951 38.4908 37.5 37.4963 37.5H22.4963ZM10.8938 26.9588C10.7472 27.2612 10.6829 27.5969 10.7074 27.9322C10.7318 28.2674 10.8442 28.5902 11.0332 28.8681C11.2222 29.1461 11.4811 29.3693 11.7838 29.5154C12.0865 29.6614 12.4223 29.7251 12.7575 29.7C16.17 29.4263 25.32 29.0625 29.9963 29.0625C34.6725 29.0625 43.8262 29.4263 47.235 29.7C47.5702 29.7251 47.906 29.6614 48.2087 29.5154C48.5114 29.3693 48.7703 29.1461 48.9593 28.8681C49.1483 28.5902 49.2607 28.2674 49.2851 27.9322C49.3096 27.5969 49.2453 27.2612 49.0987 26.9588L45.5137 19.785C45.3579 19.474 45.1185 19.2124 44.8225 19.0296C44.5265 18.8468 44.1854 18.75 43.8375 18.75H16.155C15.8071 18.75 15.466 18.8468 15.17 19.0296C14.874 19.2124 14.6346 19.474 14.4788 19.785L10.8938 26.9588Z" fill="white"/>
</g>
<defs>
<clipPath id="clip0_285_107">
<rect width="60" height="60" fill="white"/>
</clipPath>
</defs>
</svg>