<svg width="139" height="30" viewBox="0 0 139 30" fill="none" xmlns="http://www.w3.org/2000/svg">
<path d="M97.1489 28.7108H3.75095C1.71122 28.7108 1.0671 26.9663 1 26.094V3.54966C1 1.50993 2.8787 1 3.81804 1L96.9477 1.09479M97.1489 28.7108C97.5193 28.7339 98.085 28.6145 98.552 28.174M97.1489 28.7108H99.0276M99.3631 25.9598L99.2289 3.61675M99.3631 25.9598C99.5164 26.3431 99.6041 27.186 100.114 27.8385M99.3631 25.9598C99.3505 26.502 99.2611 26.9438 99.1225 27.3017M99.2289 3.61675C99.2212 2.32851 100.433 1.40145 101.041 1.09895M99.2289 3.61675C99.2089 3.2403 99.0936 2.69503 98.8178 2.20773M96.9477 1.09479C97.4809 1.09533 97.8986 1.25766 98.2225 1.50639M96.9477 1.09479L98.8178 1.09669M101.041 1.09895L135.662 1.13419C137.595 1.13419 138.122 2.78923 138.145 3.61675V26.1611C138.145 28.1471 136.49 28.6884 135.662 28.7108H102.181M101.041 1.09895L100.034 1.09793M102.181 28.7108H99.4302M102.181 28.7108C101.117 28.7108 100.496 28.3283 100.114 27.8385M98.2225 1.50639C98.4742 1.69975 98.6693 1.94534 98.8178 2.20773M98.2225 1.50639C98.3298 1.53069 98.6641 1.98408 98.8178 2.20773M98.8178 2.20773L100.034 1.09793M98.8178 2.20773V1.09669M100.034 1.09793L98.8178 1.09669M99.4302 28.7108L98.9657 27.6372M99.4302 28.7108H99.296M98.9657 27.6372C98.8449 27.8541 98.7037 28.031 98.552 28.174M98.9657 27.6372C99.0229 27.5346 99.0755 27.423 99.1225 27.3017M98.552 28.174L99.0276 28.7108M99.0276 28.7108H99.296M100.114 27.8385L99.7992 28.174M99.296 28.7108L99.7992 28.174M99.1225 27.3017C99.154 27.3554 99.5867 27.9056 99.7992 28.174" stroke="#A0A0A0"/>
<path d="M10.5562 22L15.9452 10.1H17.6282L23.0342 22H21.2492L16.4382 11.052H17.1182L12.3072 22H10.5562ZM12.8512 19.025L13.3102 17.665H20.0082L20.5012 19.025H12.8512ZM33.2678 22.136C32.3385 22.136 31.5055 21.898 30.7688 21.422C30.0435 20.946 29.4655 20.2547 29.0348 19.348C28.6155 18.4413 28.4058 17.342 28.4058 16.05C28.4058 14.758 28.6155 13.6587 29.0348 12.752C29.4655 11.8453 30.0435 11.154 30.7688 10.678C31.5055 10.202 32.3385 9.964 33.2678 9.964C34.1858 9.964 35.0132 10.202 35.7498 10.678C36.4865 11.154 37.0645 11.8453 37.4838 12.752C37.9032 13.6587 38.1128 14.758 38.1128 16.05C38.1128 17.342 37.9032 18.4413 37.4838 19.348C37.0645 20.2547 36.4865 20.946 35.7498 21.422C35.0132 21.898 34.1858 22.136 33.2678 22.136ZM33.2678 20.623C33.8912 20.623 34.4352 20.453 34.8998 20.113C35.3758 19.773 35.7442 19.263 36.0048 18.583C36.2768 17.903 36.4128 17.0587 36.4128 16.05C36.4128 15.0413 36.2768 14.197 36.0048 13.517C35.7442 12.837 35.3758 12.327 34.8998 11.987C34.4352 11.647 33.8912 11.477 33.2678 11.477C32.6445 11.477 32.0948 11.647 31.6188 11.987C31.1428 12.327 30.7688 12.837 30.4968 13.517C30.2362 14.197 30.1058 15.0413 30.1058 16.05C30.1058 17.0587 30.2362 17.903 30.4968 18.583C30.7688 19.263 31.1428 19.773 31.6188 20.113C32.0948 20.453 32.6445 20.623 33.2678 20.623ZM44.6067 22.136C43.6774 22.136 42.8444 21.898 42.1077 21.422C41.3824 20.946 40.8044 20.2547 40.3737 19.348C39.9544 18.4413 39.7447 17.342 39.7447 16.05C39.7447 14.758 39.9544 13.6587 40.3737 12.752C40.8044 11.8453 41.3824 11.154 42.1077 10.678C42.8444 10.202 43.6774 9.964 44.6067 9.964C45.5247 9.964 46.352 10.202 47.0887 10.678C47.8254 11.154 48.4034 11.8453 48.8227 12.752C49.242 13.6587 49.4517 14.758 49.4517 16.05C49.4517 17.342 49.242 18.4413 48.8227 19.348C48.4034 20.2547 47.8254 20.946 47.0887 21.422C46.352 21.898 45.5247 22.136 44.6067 22.136ZM44.6067 20.623C45.23 20.623 45.774 20.453 46.2387 20.113C46.7147 19.773 47.083 19.263 47.3437 18.583C47.6157 17.903 47.7517 17.0587 47.7517 16.05C47.7517 15.0413 47.6157 14.197 47.3437 13.517C47.083 12.837 46.7147 12.327 46.2387 11.987C45.774 11.647 45.23 11.477 44.6067 11.477C43.9834 11.477 43.4337 11.647 42.9577 11.987C42.4817 12.327 42.1077 12.837 41.8357 13.517C41.575 14.197 41.4447 15.0413 41.4447 16.05C41.4447 17.0587 41.575 17.903 41.8357 18.583C42.1077 19.263 42.4817 19.773 42.9577 20.113C43.4337 20.453 43.9834 20.623 44.6067 20.623ZM55.9456 22.136C55.0162 22.136 54.1832 21.898 53.4466 21.422C52.7212 20.946 52.1432 20.2547 51.7126 19.348C51.2932 18.4413 51.0836 17.342 51.0836 16.05C51.0836 14.758 51.2932 13.6587 51.7126 12.752C52.1432 11.8453 52.7212 11.154 53.4466 10.678C54.1832 10.202 55.0162 9.964 55.9456 9.964C56.8636 9.964 57.6909 10.202 58.4276 10.678C59.1642 11.154 59.7422 11.8453 60.1616 12.752C60.5809 13.6587 60.7906 14.758 60.7906 16.05C60.7906 17.342 60.5809 18.4413 60.1616 19.348C59.7422 20.2547 59.1642 20.946 58.4276 21.422C57.6909 21.898 56.8636 22.136 55.9456 22.136ZM55.9456 20.623C56.5689 20.623 57.1129 20.453 57.5776 20.113C58.0536 19.773 58.4219 19.263 58.6826 18.583C58.9546 17.903 59.0906 17.0587 59.0906 16.05C59.0906 15.0413 58.9546 14.197 58.6826 13.517C58.4219 12.837 58.0536 12.327 57.5776 11.987C57.1129 11.647 56.5689 11.477 55.9456 11.477C55.3222 11.477 54.7726 11.647 54.2966 11.987C53.8206 12.327 53.4466 12.837 53.1746 13.517C52.9139 14.197 52.7836 15.0413 52.7836 16.05C52.7836 17.0587 52.9139 17.903 53.1746 18.583C53.4466 19.263 53.8206 19.773 54.2966 20.113C54.7726 20.453 55.3222 20.623 55.9456 20.623ZM67.9569 22V10.1H73.2949C74.6662 10.1 75.7202 10.3777 76.4569 10.933C77.1935 11.477 77.5619 12.225 77.5619 13.177C77.5619 13.823 77.4145 14.367 77.1199 14.809C76.8365 15.251 76.4512 15.591 75.9639 15.829C75.4765 16.067 74.9495 16.186 74.3829 16.186L74.6889 15.676C75.3689 15.676 75.9695 15.795 76.4909 16.033C77.0122 16.271 77.4259 16.6223 77.7319 17.087C78.0379 17.5403 78.1909 18.107 78.1909 18.787C78.1909 19.807 77.8055 20.6003 77.0349 21.167C76.2755 21.7223 75.1422 22 73.6349 22H67.9569ZM69.6569 20.623H73.5669C74.5075 20.623 75.2272 20.4643 75.7259 20.147C76.2245 19.8297 76.4739 19.331 76.4739 18.651C76.4739 17.9597 76.2245 17.4553 75.7259 17.138C75.2272 16.8207 74.5075 16.662 73.5669 16.662H69.5039V15.285H73.1419C74.0032 15.285 74.6719 15.1263 75.1479 14.809C75.6239 14.4917 75.8619 14.0157 75.8619 13.381C75.8619 12.7463 75.6239 12.2703 75.1479 11.953C74.6719 11.6357 74.0032 11.477 73.1419 11.477H69.6569V20.623ZM82.3701 15.234H88.4901V16.679H82.3701V15.234ZM82.5231 20.521H89.4591V22H80.8231V10.1H89.2211V11.579H82.5231V20.521Z" fill="#A0A0A0"/>
<path d="M113.339 22.136C112.41 22.136 111.577 21.898 110.84 21.422C110.115 20.946 109.537 20.2547 109.106 19.348C108.687 18.4413 108.477 17.342 108.477 16.05C108.477 14.758 108.687 13.6587 109.106 12.752C109.537 11.8453 110.115 11.154 110.84 10.678C111.577 10.202 112.41 9.964 113.339 9.964C114.257 9.964 115.084 10.202 115.821 10.678C116.558 11.154 117.136 11.8453 117.555 12.752C117.974 13.6587 118.184 14.758 118.184 16.05C118.184 17.342 117.974 18.4413 117.555 19.348C117.136 20.2547 116.558 20.946 115.821 21.422C115.084 21.898 114.257 22.136 113.339 22.136ZM113.339 20.623C113.962 20.623 114.506 20.453 114.971 20.113C115.447 19.773 115.815 19.263 116.076 18.583C116.348 17.903 116.484 17.0587 116.484 16.05C116.484 15.0413 116.348 14.197 116.076 13.517C115.815 12.837 115.447 12.327 114.971 11.987C114.506 11.647 113.962 11.477 113.339 11.477C112.716 11.477 112.166 11.647 111.69 11.987C111.214 12.327 110.84 12.837 110.568 13.517C110.307 14.197 110.177 15.0413 110.177 16.05C110.177 17.0587 110.307 17.903 110.568 18.583C110.84 19.263 111.214 19.773 111.69 20.113C112.166 20.453 112.716 20.623 113.339 20.623ZM124.678 22.136C123.749 22.136 122.916 21.898 122.179 21.422C121.454 20.946 120.876 20.2547 120.445 19.348C120.026 18.4413 119.816 17.342 119.816 16.05C119.816 14.758 120.026 13.6587 120.445 12.752C120.876 11.8453 121.454 11.154 122.179 10.678C122.916 10.202 123.749 9.964 124.678 9.964C125.596 9.964 126.423 10.202 127.16 10.678C127.897 11.154 128.475 11.8453 128.894 12.752C129.313 13.6587 129.523 14.758 129.523 16.05C129.523 17.342 129.313 18.4413 128.894 19.348C128.475 20.2547 127.897 20.946 127.16 21.422C126.423 21.898 125.596 22.136 124.678 22.136ZM124.678 20.623C125.301 20.623 125.845 20.453 126.31 20.113C126.786 19.773 127.154 19.263 127.415 18.583C127.687 17.903 127.823 17.0587 127.823 16.05C127.823 15.0413 127.687 14.197 127.415 13.517C127.154 12.837 126.786 12.327 126.31 11.987C125.845 11.647 125.301 11.477 124.678 11.477C124.055 11.477 123.505 11.647 123.029 11.987C122.553 12.327 122.179 12.837 121.907 13.517C121.646 14.197 121.516 15.0413 121.516 16.05C121.516 17.0587 121.646 17.903 121.907 18.583C122.179 19.263 122.553 19.773 123.029 20.113C123.505 20.453 124.055 20.623 124.678 20.623Z" fill="#A0A0A0"/>
</svg>
