<svg width="48" height="52" viewBox="0 0 48 52" fill="none" xmlns="http://www.w3.org/2000/svg">
<path d="M23.4104 5.44843C21.5968 3.99758 17.2738 4.48496 15.0335 4.48496C12.2492 4.48496 11.3047 6.00533 9.19915 7.643C8.3533 8.30089 7.74589 9.14906 7.24545 10.0784C6.59014 11.2954 5.54554 12.0657 4.91706 13.183C3.84277 15.0928 3.17746 17.4732 3.17746 19.6864C3.17746 24.7889 2.73834 29.7701 4.35503 34.6202C7.0153 42.601 14.2604 44.5638 21.4834 47.1721C25.1283 48.4883 29.6551 51.5833 33.3662 48.5905C37.4887 45.2659 42.3178 41.3967 44.4997 36.3866C46.1457 32.6068 45.6504 27.6569 45.5702 23.6473C45.4841 19.341 43.0616 16.1136 41.1275 12.4604C40.1301 10.5764 38.7357 9.93049 37.1131 8.71353C35.8774 7.78676 35.4222 6.2515 34.2762 5.34138C32.9972 4.32572 31.0619 3.12308 29.4588 2.66507C25.8891 1.64516 24.6326 1.84844 21.1087 2.9327C19.7766 3.34258 18.289 3.16604 17.6295 4.48496" stroke="white" stroke-width="3" stroke-linecap="round"/>
<path d="M2 16.0888C12.6456 16.0888 23.1782 16.5706 33.8213 16.5706C35.2392 16.5706 41.5023 19.2726 41.5023 16.3564C41.5023 14.2141 39.1231 12.4654 37.4076 11.5123C35.4036 10.399 33.4848 9.92401 31.6535 8.35429C28.5438 5.68879 25.6504 5.49064 21.5103 5.49064C18.6234 5.49064 16.8469 6.21595 14.1504 6.82879C13.5023 6.97609 9.6048 8.27604 11.26 9.10365C12.9112 9.92923 25.4466 12.8465 24.6148 9.10365C23.8771 5.78417 15.1474 7.05319 14.1504 9.93331C13.1678 12.7719 20.7894 11.7925 22.0456 11.7264C22.9454 11.6791 23.979 11.4385 23.9457 10.308C23.8944 8.56437 20.9387 8.83665 19.8777 8.75573C16.9837 8.535 11.2895 7.24892 8.61048 9.10365C6.44532 10.6026 11.9762 11.1408 12.277 11.1644C12.5472 11.1856 19.8595 11.9353 18.8072 10.0939C18.1577 8.95724 9.34684 9.70644 7.83435 9.93331C6.31408 10.1613 7.13594 10.8955 8.04846 11.3518C11.2802 12.9676 14.5983 13.6287 18.1649 13.921C20.3529 14.1004 28.6916 15.8117 27.9067 11.5926C27.4761 9.27811 24.7491 9.6103 22.9287 9.85302C21.7644 10.0083 21.1152 10.979 21.5906 12.1279C22.673 14.7437 27.526 14.9505 29.7801 15.2859C31.0232 15.4709 40.427 16.2632 36.3103 12.4758C34.8004 11.0867 31.2686 9.23121 29.0842 9.93331C24.4984 11.4073 32.1992 16.3833 32.3493 13.6801C32.4625 11.6432 32.003 10.5267 29.9407 9.82626C28.5888 9.36712 24.7749 8.61336 23.4908 9.61215C20.3761 12.0347 35.56 13.9807 30.6097 9.29099C29.2329 7.98665 26.8135 6.30428 24.7486 7.63168C23.8741 8.19388 22.7795 10.4539 23.2499 11.5123C23.8754 12.9196 26.8456 12.1538 27.0502 10.7897C27.4447 8.15984 23.0143 8.86278 21.5103 8.86278C20.1305 8.86278 15.9703 9.05909 15.9703 11.2715C15.9703 11.6887 17.6604 10.5549 17.3352 10.0671C16.3973 8.66023 11.1615 9.06901 9.70777 9.45157C8.3081 9.81991 7.61252 10.9244 6.57649 11.7532C4.30722 13.5686 15.6426 15.4717 14.9533 13.921C14.2205 12.2722 10.4555 11.6915 8.85135 11.7532C8.25883 11.776 8.15832 12.1645 8.31609 12.7167C8.69584 14.0458 11.3467 14.1899 12.4108 14.4027C18.3495 15.5905 24.5828 15.1253 30.6097 15.1253C32.8518 15.1253 35.6675 14.2167 37.8625 14.7507C38.642 14.9403 43.6737 16.6183 40.4853 15.8212C37.7595 15.1397 34.4483 14.4136 32.4564 12.342C31.7778 11.6363 31.0447 10.7352 30.4492 10.0404C29.885 9.3822 29.551 8.46476 29.0842 7.73873C28.5401 6.89226 27.7637 6.95344 27.1573 6.34705C27.0573 6.24709 30.1877 6.45411 30.7971 6.45411C32.2702 6.45411 27.9217 5.79238 26.4615 5.59769C17.8347 4.44746 29.3533 5.12734 29.4589 5.97237C29.4702 6.0624 31.0356 8.238 29.673 7.12318C27.854 5.63489 25.2162 4.62295 22.8217 4.52716C22.7689 4.52506 27.3894 5.34282 28.6828 5.49064C30.1707 5.66068 33.3128 5.64268 33.3128 7.52463C33.3128 9.3377 33.4145 9.50041 32.2691 8.14018C31.1218 6.77785 29.2171 5.91192 27.532 5.49064" stroke="white" stroke-width="3" stroke-linecap="round"/>
<path d="M4.8903 31.9861C6.62264 31.9861 41.5022 30.4154 41.5022 33.9131C41.5022 36.8578 43.2916 42.7908 38.6118 43.066C37.0356 43.1588 35.5243 43.9047 33.9015 44.0295C32.4378 44.1421 32.1768 45.8247 30.5293 45.9564C24.667 46.4254 19.8111 46.2917 15.0068 41.6208C13.6409 40.293 11.0679 38.4928 10.5641 36.5894C9.97533 34.3652 7.89063 32.3197 5.37204 32.4679C3.52153 32.5767 6.01612 36.6262 7.40603 36.9105C9.16097 37.2695 11.3614 37.6338 13.1333 37.1782C14.1272 36.9226 13.4981 35.4273 12.7587 35.2512C11.9206 35.0517 10.0876 34.4767 9.22592 34.9836C8.61267 35.3443 8.44373 37.2795 8.95829 37.7669C9.76516 38.5313 16.703 38.8715 15.8632 37.2852C14.5356 34.7776 13.0147 37.2832 13.0798 38.9445C13.2501 43.287 23.678 42.8214 23.678 38.3557C23.678 37.078 21.6958 37.2661 20.8946 37.2852C19.3571 37.3218 19.1562 38.4188 18.9677 39.8009C18.507 43.1791 28.4953 44.416 28.4953 40.5503C28.4953 37.5261 23.7895 38.1512 23.3033 40.7644C22.5832 44.6351 33.1975 44.9587 33.3127 40.925C33.402 37.8012 29.3993 38.2659 29.4588 40.7644C29.5372 44.0582 37.9305 44.2499 38.1301 40.6574C38.1836 39.6939 37.3807 38.8695 37.3807 38.3557C37.3807 37.752 38.6666 38.1938 39.0935 37.7669C40.0055 36.855 40.703 35.8898 41.6093 34.9836C41.9907 34.6022 40.6006 35.1992 40.4317 35.2512C39.937 35.4034 38.5387 35.0899 38.2371 35.5724C37.211 37.2142 35.6081 36.8035 33.7944 36.8035C30.904 36.8035 28.0136 36.8035 25.1232 36.8035C24.9582 36.8035 28.0362 34.8765 27.5319 34.8765C21.8662 34.8765 16.0711 35.1465 10.5641 35.3583C9.7641 35.389 8.95623 35.3583 8.1554 35.3583C7.45956 35.3583 5.75669 34.7359 6.06788 35.3583C7.08948 37.4015 14.2818 40.3389 16.452 40.7644C19.2677 41.3165 21.6818 42.1026 24.6415 42.1026C25.8841 42.1026 26.9413 42.0841 28.1207 42.4772C28.9394 42.7502 24.9418 41.8133 24.2668 41.7279C21.5504 41.384 18.7463 41.1351 16.2914 39.8009C15.7977 39.5326 15.0661 38.7981 14.525 38.7304C13.1455 38.558 11.8315 37.6704 10.1894 37.7669C9.29715 37.8194 9.81621 38.9306 10.2964 39.2122C12.5447 40.5301 17.0869 40.8235 19.61 41.032C22.302 41.2545 25.2035 41.3154 27.9066 41.1391C29.2796 41.0495 30.0144 39.5914 31.2787 39.1051C33.4539 38.2685 33.9213 37.3836 36.5778 37.2852C37.5403 37.2496 37.9108 36.5479 36.9525 36.1076C34.4675 34.9659 31.4877 35.0738 28.8165 34.7695C27.4988 34.6194 23.5294 34.3948 24.8556 34.3948C26.1035 34.3948 27.3548 34.3677 28.6024 34.3948C29.5967 34.4164 32.9514 34.3294 33.6874 34.9836C33.9832 35.2466 30.5761 36.3802 30.3152 36.4288C29.0097 36.6722 28.0951 36.9563 27.6389 38.2487C27.3713 39.007 32.2376 38.7304 32.7239 38.7304C38.9665 38.7304 34.1863 40.4152 31.2787 41.6208C28.9654 42.58 34.501 41.5903 35.5073 41.6208C38.1699 41.7015 32.0277 44.3193 33.5268 43.9225C33.7654 43.8593 37.2919 42.7939 36.5778 42.2096C35.4118 41.2556 33.2276 42.8063 32.3492 43.4407C30.5324 44.7529 30.2394 46.0398 27.9066 45.9564C25.9418 45.8863 24.4965 44.4772 22.6075 44.1366C21.196 43.882 20.0966 43.686 18.8606 42.959C17.9983 42.4517 18.04 42.018 19.0747 42.2096C22.8858 42.9154 26.6243 44.2142 30.3152 45.3677C33.4576 46.3496 31.7583 44.2962 30.3152 43.066C28.0462 41.1318 25.1876 39.5629 22.2328 39.1051C19.9487 38.7512 15.89 39.3717 20.1988 39.2122C21.1432 39.1772 21.4987 38.4406 20.7876 37.7669C19.6887 36.7259 18.0666 36.8035 16.6661 36.8035C15.498 36.8035 19.19 36.8135 19.7171 36.6964C20.2139 36.586 22.1144 35.0314 21.0552 34.5018C20.3444 34.1465 18.7314 34.1908 18.486 35.0906C17.8334 37.4834 20.7915 38.1828 22.6075 38.5163C26.264 39.1879 30.3011 38.7304 34.0085 38.7304C35.0491 38.7304 36.6383 39.0186 37.6483 38.6234C37.8976 38.5258 37.8624 37.981 38.1301 37.981C38.7367 37.981 38.1301 39.1943 38.1301 39.8009C38.1301 41.1722 37.8776 40.9617 36.7919 41.6208C36.5403 41.7736 33.5268 43.1223 33.5268 42.4772C33.5268 41.8903 37.1768 41.6336 37.6483 41.6208C41.1897 41.5251 35.8341 44.6504 34.865 45.2606C33.5644 46.0795 31.9043 45.9564 30.4223 45.9564C27.7256 45.9564 27.8651 46.3357 30.5293 46.4382C32.4382 46.5116 30.0901 48.6643 29.4588 47.4017" stroke="#FF0000" stroke-width="3" stroke-linecap="round"/>
<path d="M3.44507 18.4975C3.99793 18.5666 4.35085 26.4966 4.40854 27.6505C4.53286 30.1369 6.77524 29.5774 8.90474 29.5774C12.5534 29.5774 16.2021 29.5774 19.8508 29.5774C25.2812 29.5774 30.7975 30.2706 36.2031 30.5409C37.0372 30.5826 37.8837 30.5409 38.7188 30.5409C39.9678 30.5409 40.4985 31.3929 41.5022 31.5044C43.473 31.7234 42.9474 29.8085 42.9474 28.3731C42.9474 26.1778 43.1776 21.2858 40.7528 20.1836C39.3792 19.5592 37.229 19.6352 35.7481 19.461C33.5345 19.2006 31.5603 18.4975 29.2982 18.4975C26.3025 18.4975 23.4017 18.9792 20.4129 18.9792C15.3279 18.9792 10.2429 18.9792 5.15791 18.9792C4.34284 18.9792 3.62665 26.5434 4.51559 27.5434C4.67822 27.7264 4.89028 23.6354 4.89028 22.9402C4.89028 22.2689 4.54729 20.9383 5.47906 20.9062C8.22848 20.8114 11.1219 21.1637 13.8291 21.602C18.2355 22.3154 22.4871 22.3514 26.9431 22.3514C28.9414 22.3514 30.9397 22.3514 32.938 22.3514C36.4283 22.3514 36.0105 22.3514 32.6971 22.3514C31.0006 22.3514 13.1333 22.9346 13.1333 21.8697C13.1333 21.1729 26.0263 20.4245 27.7995 20.4245C31.4771 20.4245 20.3793 20.0779 16.7731 20.7991C16.7689 20.8 21.9664 21.2071 23.3033 21.2809C26.838 21.4759 30.3893 21.3879 33.9282 21.3879C36.8811 21.3879 28.0225 21.3879 25.0696 21.3879C22.5807 21.3879 20.0917 21.3879 17.6027 21.3879C16.8625 21.3879 14.8872 21.3717 15.4349 21.8697C16.3579 22.7087 18.5718 22.3424 19.6635 22.3782C22.112 22.4584 24.5474 22.7343 26.9966 22.8064C29.9375 22.8929 32.8862 22.8331 35.8284 22.8331C41.0393 22.8331 25.4364 23.7966 20.2255 23.7966C18.1915 23.7966 24.2935 23.7966 26.3275 23.7966C27.9112 23.7966 32.6539 24.2263 28.2812 24.2783C25.8215 24.3076 23.4351 24.6863 21.0017 24.7601C18.7105 24.8295 25.5651 25.2078 27.853 25.3489C30.3763 25.5044 37.8815 25.6141 35.4002 26.0982C32.7107 26.623 29.7928 26.3226 27.1839 27.4096C25.453 28.1308 30.929 27.6505 32.8042 27.6505C34.2099 27.6505 36.5595 26.8233 37.8624 27.1955C38.8078 27.4656 41.8898 29.5085 41.9839 27.0617C42.0595 25.0974 38.7387 23.4207 36.8989 23.529C35.9925 23.5823 37.376 26.8921 38.5047 24.7601C39.6468 22.6028 36.0546 22.5284 34.8649 22.9402C32.6517 23.7063 36.3845 25.6627 37.8892 24.4924C39.5625 23.1909 38.1219 19.8217 36.4707 21.9232C34.1962 24.818 38.5503 26.2875 38.6118 25.2418C38.7102 23.5687 39.1719 21.3879 37.0595 21.3879C35.4224 21.3879 34.8544 21.6484 33.7944 22.8331C33.2999 23.3859 32.9051 24.5387 33.9015 24.7601C34.1988 24.8262 37.7633 25.3628 37.5412 24.9742C36.5186 23.1845 30.7476 23.7966 29.1912 23.7966C24.8713 23.7966 12.0814 25.192 16.3716 25.6968C19.3377 26.0457 22.5099 25.7235 25.4979 25.7235C26.9839 25.7235 27.5639 25.0682 25.7922 24.7601C23.8817 24.4278 22.0855 24.2783 20.1452 24.2783C18.9033 24.2783 19.337 25.3743 20.3058 25.6165C20.8592 25.7548 24.8038 26.0854 24.9091 25.3489C25.0233 24.5495 23.164 26.2549 23.1962 27.0617C23.2392 28.1354 32.9395 27.6505 24.9091 27.6505C20.4854 27.6505 16.076 27.1688 11.6881 27.1688C10.0121 27.1688 7.92376 27.5193 7.1919 25.6165C6.9172 24.9023 6.69819 20.4526 6.81722 22.8331C6.93939 25.2767 13.6977 28.7964 15.7561 26.9546C17.564 25.3371 12.2395 22.7448 10.8852 23.4219C8.17853 24.7753 14.2874 26.3387 15.7026 24.5192C16.7265 23.2027 7.71428 23.2006 6.65664 23.3416C4.6448 23.6099 7.43142 24.2783 8.04832 24.2783C8.6043 24.2783 14.6975 23.5111 13.9362 22.9402C11.3203 20.9783 7.48758 25.3295 9.92174 26.0982C13.2076 27.1359 16.7883 27.2384 20.1988 27.1688C23.0884 27.1098 25.1266 25.6022 27.7192 24.546C31.9117 22.8379 36.2816 23.3149 40.7528 23.3149C41.6152 23.3149 43.3773 22.0075 41.743 23.3149C41.4365 23.5601 41.3012 24.1683 41.0204 24.5192C40.5411 25.1184 39.2949 24.5939 38.6118 24.8671C33.0684 27.0845 25.3967 25.7235 19.5564 25.7235C16.8542 25.7235 14.1257 25.5956 11.474 26.232C9.56177 26.691 8.11846 28.2241 6.12138 28.5872C4.39597 28.9009 5.85375 23.5644 5.85375 27.1688" stroke="#0038FF" stroke-width="3" stroke-linecap="round"/>
</svg>
