<svg width="36" height="36" viewBox="0 0 36 36" fill="none" xmlns="http://www.w3.org/2000/svg">
<g clip-path="url(#clip0_545_55)">
<path d="M28.9991 4.41008L30.9041 5.08358L31.5386 6.98708C31.6406 7.29308 31.9286 7.50008 32.2511 7.50008C32.5736 7.50008 32.8601 7.29308 32.9636 6.98708L33.5951 5.09258L35.4896 4.46108C35.7956 4.35908 36.0026 4.07258 36.0026 3.75008C36.0026 3.42758 35.7956 3.14108 35.4896 3.03908L33.5951 2.40758L32.9636 0.513077C32.7581 -0.0989228 31.7456 -0.0989228 31.5401 0.513077L30.9116 2.39858L29.0276 2.98808C28.7201 3.08408 28.5071 3.36608 28.5011 3.69008C28.4951 4.01408 28.6946 4.30358 28.9991 4.41008Z" fill="#B5B5B5"/>
<path d="M35.5286 28.5539L31.5416 26.9594L29.9471 22.9724C29.7221 22.4024 28.7816 22.4024 28.5551 22.9724L26.9621 26.9519L22.9856 28.4564C22.6991 28.5659 22.5071 28.8374 22.5011 29.1434C22.4951 29.4494 22.6766 29.7299 22.9601 29.8484L26.9576 31.5329L28.5551 35.5274C28.6676 35.8124 28.9451 35.9984 29.2511 35.9984C29.5571 35.9984 29.8346 35.8109 29.9471 35.5274L31.5416 31.5404L35.5286 29.9459C35.8136 29.8319 35.9996 29.5559 35.9996 29.2499C35.9996 28.9439 35.8136 28.6679 35.5286 28.5539ZM30.6851 30.2684C30.4946 30.3449 30.3431 30.4964 30.2681 30.6869L29.2496 33.2309L28.2311 30.6869C28.1576 30.5009 28.0121 30.3524 27.8261 30.2744L25.2686 29.1959L27.8006 28.2374C27.9971 28.1624 28.1531 28.0094 28.2311 27.8144L29.2496 25.2704L30.2681 27.8144C30.3446 28.0049 30.4946 28.1564 30.6851 28.2329L33.2291 29.2514L30.6851 30.2684Z" fill="#B5B5B5"/>
<path d="M28.4027 18.6885C29.3732 18.378 30.0002 17.5185 30.0002 16.5C30.0002 15.4815 29.3732 14.622 28.3847 14.3055L19.7342 11.7675L17.2172 3.12896C16.9202 2.15396 16.0682 1.51496 15.0497 1.50146C14.0507 1.54346 13.1642 2.10446 12.8312 3.09596L10.2677 11.766L1.62772 14.2845C0.652717 14.5815 0.0137173 15.4335 0.000217279 16.452C-0.0132827 17.4705 0.603217 18.3375 1.59472 18.6705L10.2677 21.234L12.8117 29.904C13.1222 30.8745 13.9817 31.5015 15.0002 31.5015C16.0187 31.5015 16.8782 30.8745 17.1947 29.886L19.7342 21.2355L28.3847 18.6975L28.4027 18.6915V18.6885ZM27.9527 17.2575L18.9197 19.9095C18.6737 19.9815 18.4832 20.1735 18.4112 20.418L15.7622 29.445C15.5972 29.9595 15.1382 30 15.0017 30C14.8652 30 14.4062 29.9595 14.2472 29.463L11.5922 20.4195C11.5202 20.175 11.3297 19.983 11.0852 19.911L2.04772 17.2395C1.53472 17.0685 1.50172 16.608 1.50322 16.4715C1.50472 16.335 1.55122 15.876 2.05972 15.7215L11.0852 13.092C11.3312 13.0215 11.5232 12.8295 11.5952 12.585L14.2667 3.54746C14.4347 3.04646 14.8772 3.00296 15.0242 3.00296H15.0332C15.1697 3.00446 15.6287 3.05096 15.7832 3.55946L18.4127 12.5835C18.4847 12.8295 18.6752 13.0215 18.9212 13.0935L27.9482 15.7425C28.4642 15.9075 28.5032 16.3665 28.5032 16.503C28.5032 16.6395 28.4642 17.094 27.9557 17.2605L27.9527 17.2575Z" fill="#B5B5B5"/>
</g>
<defs>
<clipPath id="clip0_545_55">
<rect width="36" height="36" fill="white"/>
</clipPath>
</defs>
</svg>
