<svg width="573" height="530" viewBox="0 0 573 530" fill="none" xmlns="http://www.w3.org/2000/svg">
<path d="M586.5 530.424H372L228 516.424L193 528.424L71.5 514.924H44.5C32.1667 514.758 7.1 510.824 5.5 496.424L1 475.424V369.424L3 366.424V304.924L6 252.924C13.5001 204.424 2.00006 187.424 79 159.924V151.924L75.0001 148.924H61.5001C49.1667 147.591 24.1001 142.224 22.5001 131.424C20.9001 120.624 42.5001 106.924 53.5001 101.424L70.0001 94.9244C83.6667 91.4244 108.9 89.7244 100.5 110.924L88.0001 135.424L100.5 138.924H128C134 129.924 150.1 110.224 166.5 103.424L181.5 74.9244L178.5 70.9244H153C155.333 64.4244 160 51.2244 160 50.4244C160 49.6244 161 38.4244 161.5 32.9244L204.5 31.9244C210.5 25.5911 228.5 12.1244 252.5 8.9244C282.5 4.9244 389.5 -0.5756 394.5 1.4244C395.816 1.4902 397.312 1.62702 398.922 1.84783C419.711 2.81947 506.82 2.04038 553.795 1.44611C554.386 1.43144 554.955 1.4244 555.5 1.4244H587V20.9244V147.924V165.424V280.424V530.424H586.5Z" fill="#1F1F1F" fill-opacity="0.4"/>
<path d="M5.5 496.424C7.1 510.824 32.1667 514.758 44.5 514.924H71.5L193 528.424L228 516.424L372 530.424H586.5H587V280.424M5.5 496.424L1 475.424V369.424L3 366.424M5.5 496.424L11.5001 471.924V438.924M3 366.424V304.924L6 252.924C13.5001 204.424 2.00006 187.424 79 159.924V151.924L75.0001 148.924H61.5001C49.1667 147.591 24.1001 142.224 22.5001 131.424C20.9001 120.624 42.5001 106.924 53.5001 101.424L70.0001 94.9244C83.6667 91.4244 108.9 89.7244 100.5 110.924L88.0001 135.424L100.5 138.924H128C134 129.924 150.1 110.224 166.5 103.424L181.5 74.9244L178.5 70.9244H153C155.333 64.4244 160 51.2244 160 50.4244C160 49.6244 161 38.4244 161.5 32.9244L204.5 31.9244C210.5 25.5911 228.5 12.1244 252.5 8.9244C282.5 4.9244 389.5 -0.5756 394.5 1.4244M3 366.424L11.5001 438.924M394.5 1.4244C398.5 3.0244 503.5 2.09107 555.5 1.4244M394.5 1.4244C404.5 1.92441 424.9 6.52444 426.5 20.9244M555.5 1.4244H587V20.9244M555.5 1.4244C542.667 1.42441 516.5 5.32444 514.5 20.9244M71.5 475.424C71.5 492.624 88.1667 499.591 96.5001 500.924L348.5 505.424C344.9 466.224 356 413.424 362 391.924L165.5 375.924C95.9001 369.124 82.5001 398.424 84.5001 413.924L75.0099 475.361M71.5 475.424H75.0001L75.0099 475.361M71.5 475.424C70.5 475.424 74.0001 475.424 75.0099 475.361M431.5 165.424L443.5 287.924M431.5 165.424C263.9 169.824 185 158.258 166.5 151.924L166.478 151.96L161.5 159.924C239.167 209.424 395.9 307.724 401.5 304.924C407.1 302.124 431.833 292.424 443.5 287.924M431.5 165.424H513M443.5 287.924L499.989 288.924M398.5 312.424C391.195 318.591 374.869 338.024 368 366.424L359.5 378.424L199 359.924L133 352.424C49.0001 356.424 45.5001 336.924 32.5001 445.424V447.924C28.0001 447.258 17.5001 444.524 11.5001 438.924M513 165.424C508.561 191.403 499.839 251.965 499.989 288.924M513 165.424H587M587 280.424L541.5 308.424C526.3 294.424 507.5 290.591 500 290.424C499.995 289.929 499.991 289.429 499.989 288.924M587 280.424V165.424M587 20.9244H514.5M587 20.9244V147.924M426.5 20.9244H424C175 29.4244 222.5 31.9244 158.5 140.424L208.5 145.924L214 142.924L229.5 143.924L232 147.924H587M426.5 20.9244H514.5M587 147.924V165.424M376 505.424C297.5 227.424 636 209.424 579.5 505.424H376ZM341 306.424L333 312.424L320.5 327.924C313.667 334.424 286.7 343.524 233.5 327.924L66.0001 293.924L59.5001 284.924L50.0001 266.424C46.8334 261.424 45.3001 251.724 64.5001 252.924C123.333 258.591 254.9 274.724 310.5 293.924L341 306.424ZM90.0001 176.424C97.5001 178.924 117.1 183.824 135.5 183.424C131.667 179.924 120.8 172.924 108 172.924C95.2001 172.924 90.6667 175.258 90.0001 176.424Z" stroke="white"/>
<path d="M88 257.5H67.5C63.5 257.5 62.8333 260.5 63 262V275.5C63 278.7 66.1431 279.833 67.7147 280H88C92.4 280 93.1667 277 93 275.5V264C93 259.6 89.6667 257.833 88 257.5Z" stroke="white" stroke-width="3"/>
<path d="M126.023 263H105.523C101.523 263 100.856 266 101.023 267.5V281C101.023 284.2 104.166 285.333 105.738 285.5H126.023C130.423 285.5 131.19 282.5 131.023 281V269.5C131.023 265.1 127.69 263.333 126.023 263Z" stroke="white" stroke-width="3"/>
<path d="M169.023 269H148.523C144.523 269 143.856 272 144.023 273.5V287C144.023 290.2 147.166 291.333 148.738 291.5H169.023C173.423 291.5 174.19 288.5 174.023 287V275.5C174.023 271.1 170.69 269.333 169.023 269Z" stroke="white" stroke-width="3"/>
<path d="M209.023 274H188.523C184.523 274 183.856 277 184.023 278.5V292C184.023 295.2 187.166 296.333 188.738 296.5H209.023C213.423 296.5 214.19 293.5 214.023 292V280.5C214.023 276.1 210.69 274.333 209.023 274Z" stroke="white" stroke-width="3"/>
<path d="M444 287L432 165H514C509.2 167 503 247.833 500.5 288L444 287Z" fill="white" stroke="white"/>
<path d="M427 21C425 8.2 408.5 3 400.5 2L546.5 1.5C517.7 5.5 513.167 16.1667 514.5 21H427Z" fill="white" stroke="white"/>
</svg>
