<svg width="337" height="209" viewBox="0 0 337 209" fill="none" xmlns="http://www.w3.org/2000/svg">
<path d="M2.54257 201.92C2.54257 206.34 2.88803 202.366 2.88803 206.622H70.7234C108.037 206.622 145.064 203.852 182.399 204.271C210.228 204.584 238.316 206.622 266.123 206.622H324.442C326.115 206.622 335.077 207.843 335.218 205.447C335.344 203.31 335.218 201.12 335.218 198.981V190.687C335.218 186.112 332.467 190.045 329.34 190.165C315.043 190.715 300.667 191.34 286.368 191.34H171.166C145.476 191.34 119.895 192.516 94.234 192.516C71.1733 192.516 47.4662 190.901 24.4858 192.777C18.9584 193.228 8.24235 191.733 3.39156 194.345C1.63002 195.293 2.54257 200.221 2.54257 201.92Z" stroke="white" stroke-width="3" stroke-linecap="round"/>
<path d="M104.814 190.165C104.814 129.199 114.218 68.2558 114.218 7.43499C114.218 1.70062 121.121 3.25532 125.059 3.25532C147.807 3.25532 170.499 2.07979 193.24 2.07979C211.918 2.07979 230.596 2.07979 249.274 2.07979C256.905 2.07979 259.385 0.47264 258.547 8.74114C256.104 32.869 255.239 56.9791 251.821 80.9057C249.051 100.294 247.053 121.393 247.053 140.923C247.053 157.337 247.053 173.751 247.053 190.165" stroke="white" stroke-width="3" stroke-linecap="round"/>
<path d="M281.855 34.9661C283.752 34.8712 285.348 34.1544 287.021 33.2738C291.322 31.0102 295.581 28.7618 299.994 26.7128C303.464 25.1018 307.119 24.0085 310.593 22.4377C312.442 21.6014 314.056 20.4031 316.056 20.0033" stroke="white" stroke-width="3" stroke-linecap="round"/>
<path d="M91.079 40.8443C88.4531 40.3669 86.8383 37.7456 84.9633 36.1536C81.1118 32.8835 77.1973 30.5286 72.4943 28.6722C68.289 27.0122 64.3522 24.7111 60.0847 23.2096C58.6882 22.7182 57.2911 21.6064 55.8096 21.6064" stroke="white" stroke-width="3" stroke-linecap="round"/>
<path d="M80.0857 101.187C77.2011 101.712 74.442 103.99 71.9279 105.381C66.6817 108.283 61.2712 111.225 56.158 114.343C53.806 115.777 51.4029 117.08 49.063 118.25" stroke="white" stroke-width="3" stroke-linecap="round"/>
<path d="M283.788 87.85C284.56 89.3955 286.466 90.8231 287.696 91.9371C293.112 96.8412 299.108 101.168 305.293 105.046C310.661 108.411 316.302 110.923 322.043 113.532" stroke="white" stroke-width="3" stroke-linecap="round"/>
<path d="M71.0928 66.6587C59.9864 66.835 48.9551 67.6371 37.8271 67.6371" stroke="white" stroke-width="3" stroke-linecap="round"/>
<path d="M281.449 65.6803H310.801" stroke="white" stroke-width="3" stroke-linecap="round"/>
</svg>
