<svg xmlns="http://www.w3.org/2000/svg" height="48" viewBox="0 -960 960 960" width="48">
    <path d="M464.808-140.923v-79.923q-53.423-4.885-89.539-33.654-36.115-28.769-52.384-75.308l27.73-12.884q17.77 44.923 49.77 68.307 32 23.385 81.5 23.385 48.5 0 87.769-25.212 39.269-25.211 39.269-77.096 0-47.077-30.385-74.711-30.384-27.635-104.577-51.75-71.653-22.769-104.346-54.327-32.692-31.558-32.692-84.058 0-51.038 39.288-84.846 39.289-33.808 88.597-35.731v-80.461H495v80.461q39.346 2.692 68.981 19.366 29.635 16.673 49.981 49.865l-26.193 14.539q-15.923-25.5-41.846-40.827-25.923-15.327-64.308-15.327-47.038 0-80.769 24.596-33.731 24.596-33.731 68.134 0 38.154 25.75 64.02 25.751 25.865 107.174 51.019 72.076 24.577 105.192 58.211Q638.346-411.5 639.115-355q-.115 56.5-40.269 92.885-40.154 36.384-103.846 40.73v80.462h-30.192Z" fill="white"/>
</svg>
