<svg width="172" height="34" viewBox="0 0 172 34" fill="none" xmlns="http://www.w3.org/2000/svg">
<path d="M167.899 30.6052C167.899 33.1877 162.527 33.0767 160.922 32.6555C158.079 31.9094 155.053 26.6273 158.153 24.5606C159.601 23.5949 161.03 23.3136 162.706 23.1227C162.802 23.1117 164.334 22.9363 163.665 22.9363C161.667 22.9363 157.831 23.0523 156.781 20.8726C155.632 18.4858 156.964 16.0674 157.86 13.896C159.7 9.43705 163.648 6.32069 167.273 3.31138C167.594 3.0445 171.257 -0.275607 170.988 1.54062C170.764 3.04907 169.804 4.53012 168.911 5.72122C166.325 9.16896 163.044 12.2051 159.511 14.6549C155.033 17.7596 150.328 20.6415 145.717 23.5487C142.142 25.8032 138.144 28.0481 133.841 28.395C132.22 28.5258 130.685 28.404 130.38 26.5577C130.094 24.8298 130.317 23.0538 130.699 21.3652C130.728 21.2382 131.153 19.3665 131.179 19.3947C131.553 19.8164 131.071 21.4978 131.045 21.9777C130.923 24.2843 131.53 26.7659 133.761 27.8891C135.79 28.9098 138.642 28.5062 140.166 26.8107C141.539 25.282 144.609 18.8751 141.51 17.584C137.912 16.0848 133.49 19.5859 131.645 22.4437C131.301 22.9763 130.753 23.7923 130.753 24.4674C130.753 25.0614 131.317 23.4219 131.618 22.9096C132.097 22.093 135.373 16.3947 133.282 16.0396C131.697 15.7704 129.909 16.8224 128.596 17.5308C125.954 18.9551 123.604 20.6595 120.66 21.4451C118.066 22.1376 115.38 22.457 112.699 22.457C111.498 22.457 110.423 22.4702 109.77 21.312C109.362 20.5908 109.168 16.9802 109.477 19.9273C109.786 22.8791 112.043 26.015 115.308 25.7588C118.797 25.4852 121.351 20.422 119.529 17.3843C117.734 14.3926 110.963 17.0484 108.864 18.1432C108.07 18.5575 107.261 18.9978 106.574 19.5811C106.349 19.7729 106.023 20.332 105.735 20.4599C105.537 20.548 106.29 18.3829 106.321 18.2897C107.645 14.3176 108.331 10.2269 111.048 6.9328C113.354 4.13587 116.706 3.34613 120.261 3.81732C120.988 3.91372 122.039 4.3544 122.019 5.25523C121.994 6.34505 120.098 7.05194 119.356 7.41211C115.713 9.17975 112.308 11.0137 109.051 13.4567C104.869 16.5929 100.846 19.7992 96.1626 22.1907C93.2912 23.657 89.4677 25.4273 86.1239 24.9866C84.3786 24.7566 84.4995 22.7086 84.4995 21.3785C84.4995 20.555 84.3385 19.4003 84.8457 18.6758C84.9434 18.5363 85.0861 20.1266 85.1253 20.3267C85.6938 23.2324 89.4074 25.582 92.1684 23.815C93.6317 22.8785 94.4265 21.3924 94.5383 19.6876C94.595 18.8232 94.8944 16.9727 93.8993 16.4923C91.1935 15.186 87.8232 18.3829 86.044 20.0604C85.6073 20.4722 85.6978 20.1706 85.6978 19.7143C85.6978 18.6469 85.7605 17.4386 85.112 16.5189C82.6178 12.9817 76.0246 20.852 74.6738 22.7232C73.5895 24.2253 72.7145 25.8823 71.8512 27.5163C71.3018 28.5563 72.0492 26.4821 72.0909 26.3713C73.8158 21.7844 75.126 17.4349 77.9623 13.4167C78.6216 12.4828 78.6098 13.1295 78.3085 13.9094C77.6832 15.5277 76.7332 17.1514 75.9652 18.7157C75.6156 19.4279 74.2693 22.2063 73.3158 21.1256C71.5037 19.0719 67.847 21.6795 66.5788 23.0428C65.9492 23.7196 65.3576 24.4879 65.101 25.3861C64.8092 26.4072 66.0751 23.4951 66.4723 22.5102C67.7099 19.4421 69.2309 16.3116 69.8275 13.0306C70.0357 11.8854 65.6853 14.6901 65.3273 14.8946C62.0963 16.7409 58.1485 19.1552 54.3033 19.1018C52.146 19.0719 52.8654 16.1377 52.8654 14.615C52.8654 12.8103 52.2566 18.4649 53.1716 20.0205C55.1342 23.3569 58.8516 17.7419 59.5357 16.2127C60.506 14.0438 61.2659 7.86766 57.0327 10.5942C55.3286 11.6917 53.7815 13.6762 52.679 15.3606C52.5025 15.6302 51.4053 17.6112 51.4807 17.3177C51.8933 15.7134 53.6277 11.3103 51.4807 10.2879C47.5953 8.43772 42.9084 14.1877 40.6964 16.4657C39.2865 17.9175 37.8233 19.6518 36.0365 20.6729C34.933 21.3035 35.1231 20.3015 35.1311 19.4746C35.1678 15.6568 36.6297 11.3383 38.3398 7.91804C38.6037 7.39021 38.3145 9.42949 38.2998 9.4891C37.6928 11.9578 36.1533 14.337 34.8914 16.5189C34.359 17.4396 29.8165 23.2205 28.9134 19.8341C28.1494 16.969 29.2324 12.8584 30.9105 10.4344C32.7313 7.80438 28.8072 16.8165 26.3705 18.8888C25.4813 19.645 24.3744 20.0859 23.2017 20.0604C22.1884 20.0384 22.4351 18.5946 22.4295 17.9036C22.4133 15.8886 22.5202 13.8962 22.6159 11.8856C22.6788 10.5648 22.458 9.59956 21.0448 9.27607C16.2136 8.17012 11.2206 12.6846 8.26337 15.8798C6.73437 17.5319 5.41553 19.3329 4.02951 21.0989C3.71673 21.4975 2.80251 22.9206 3.65671 21.7247C5.30681 19.4145 6.17323 16.2796 6.94528 13.6031C7.6573 11.1348 9.19371 7.80259 8.91576 5.16203C8.53553 1.54986 3.70983 2.8988 2.11229 4.61616C-1.15458 8.12805 3.4833 11.2301 6.90533 11.6327C9.90353 11.9854 8.14756 10.6291 6.37277 10.2347" stroke="white" stroke-opacity="0.05" stroke-width="2" stroke-linecap="round"/>
</svg>
