<svg width="45" height="46" viewBox="0 0 45 46" fill="none" xmlns="http://www.w3.org/2000/svg">
<path d="M23.4559 3.92694C21.0315 3.92694 16.8194 2.2194 14.7847 4.14105C12.9832 5.84245 8.48313 5.94417 7.55867 8.71753C7.18686 9.83298 4.71845 13.6007 3.91889 14.1504C2.16521 15.3561 3.85162 19.7067 2.50045 20.7877C1.53827 21.5574 2.25958 27.1798 2.25958 28.4955C2.25958 31.0953 3.24619 33.3576 5.39086 35.0256C6.77856 36.105 7.48862 37.3969 9.00388 38.371C10.2316 39.1603 11.5975 39.9059 12.9648 40.4318C15.5385 41.4217 17.8558 43.4293 20.8064 43.4293C24.6738 43.4293 28.3166 45.5486 32.1272 43.6434C34.9523 42.2308 37.1852 39.7959 39.835 38.2372C44.4748 35.5079 42.7254 26.8916 42.7254 22.3399C42.7254 19.9125 41.6704 16.7692 40.5576 14.766C40.0265 13.8102 39.8361 12.4804 39.3532 11.3938C38.8279 10.212 37.0081 9.25417 36.0881 8.36961C34.3476 6.69602 31.3382 6.22037 29.9594 4.38191C28.4005 2.30346 25.4506 2 22.9742 2" stroke="white" stroke-width="3" stroke-linecap="round"/>
<path d="M7.07678 11.6347C10.0625 11.6347 11.8034 14.0068 14.3028 15.3815C14.8315 15.6723 17.8726 18.7924 16.7115 18.8607C14.6035 18.9847 12.4539 18.8607 10.3419 18.8607C9.35536 18.8607 3.81015 19.5597 4.77516 17.6296C5.21139 16.7572 11.7239 15.6325 10.8236 14.6322C10.0619 13.7858 8.55609 14.0434 7.55852 14.0434C6.56619 14.0434 6.09101 15.4338 7.07678 15.4886C8.11453 15.5462 11.4726 15.4098 11.4124 15.3815C9.96561 14.7007 8.16228 15.0069 6.59505 15.0069C6.07192 15.0069 8.01564 14.1269 6.59505 14.0434C5.47991 13.9778 4.3395 14.0434 3.2229 14.0434" stroke="white" stroke-width="3" stroke-linecap="round"/>
<path d="M17.1933 28.4955C14.3385 28.4955 11.4838 28.4955 8.62907 28.4955C7.91632 28.4955 5.02353 28.7166 4.72166 29.2448C4.34023 29.9123 4.04743 31.7681 3.75819 32.5635C3.39547 33.5609 5.53565 37.0421 6.59508 37.1667C7.34505 37.2549 8.16552 36.2617 9.00376 35.9624C9.95363 35.6231 11.735 35.3183 12.3759 34.5172C12.8922 33.8718 14.154 34.2395 14.8916 33.4199C15.5484 32.6901 16.0092 32.2376 16.203 31.1718C16.5548 29.2368 12.2985 29.8231 11.4124 30.3154C10.2341 30.97 10.7021 32.5322 9.72636 33.3128C9.64507 33.3779 12.5124 31.367 13.3126 30.7168C16.4157 28.1955 11.6178 28.2901 9.96723 29.9407" stroke="white" stroke-width="3" stroke-linecap="round"/>
<path d="M37.9078 11.6347C37.9078 14.1037 35.6141 15.918 33.3313 16.4253C32.0219 16.7163 27.6952 18.379 31.4311 18.379C32.8285 18.379 38.3895 19.0761 38.3895 17.5226C38.3895 16.6254 37.1196 16.0703 36.4893 15.7027C34.5753 14.5862 38.6254 14.707 35.4991 15.4886" stroke="white" stroke-width="3" stroke-linecap="round"/>
<path d="M42.2435 29.4589C39.7941 29.4589 36.8309 29.4619 34.509 28.7363C31.1356 27.6821 29.3965 28.6543 30.6819 31.8676C31.0311 32.7407 33.6511 33.6963 34.5358 33.7945C35.1217 33.8597 37.6126 34.1481 37.9079 34.5172C38.3443 35.0627 40.2418 34.7846 40.9054 34.758C42.6145 34.6897 40.1562 33.6188 39.6207 33.3128C38.6122 32.7365 38.4685 31.3805 37.1585 30.9041C35.772 30.4 34.5485 30.0264 33.0905 29.9407C31.8103 29.8654 28.7549 27.9408 28.7549 29.4589C28.7549 34.1768 28.2732 38.6645 28.2732 43.4293" stroke="white" stroke-width="3" stroke-linecap="round"/>
<path d="M17.675 29.4589C17.675 31.5947 18.6385 32.9274 18.6385 34.9989C18.6385 36.8456 18.6385 38.6922 18.6385 40.5389" stroke="white" stroke-width="3" stroke-linecap="round"/>
<path d="M16.7114 5.37216V20.306" stroke="white" stroke-width="3" stroke-linecap="round"/>
<path d="M26.8281 3.44522C26.8281 6.42867 26.4799 9.63861 26.8281 12.5982C26.9412 13.56 28.2733 14.9605 28.2733 16.2112C28.2733 17.2139 28.7784 18.9075 29.2368 19.8242" stroke="white" stroke-width="3" stroke-linecap="round"/>
<path d="M20.5653 3.92694C20.5653 15.3895 21.0471 27.017 21.0471 38.6119C21.0471 39.8252 20.5045 43.3369 21.0471 42.2517C21.9053 40.5353 22.0105 37.3749 22.0105 35.5074C22.0105 32.608 22.0105 29.7087 22.0105 26.8094C22.0105 23.2737 21.0471 19.5934 21.0471 15.9971C21.0471 13.9424 20.3219 9.25534 21.9035 7.67377C22.6279 6.94933 23.3245 6.19923 24.0445 5.4792C24.7955 4.72826 25.2474 3.28277 25.3827 5.85388C25.548 8.99517 25.8644 12.037 25.8644 15.2477C25.8644 22.0723 25.8644 28.8969 25.8644 35.7215C25.8644 38.4694 26.7761 40.7342 23.4557 40.5388C22.0022 40.4533 23.4557 33.0312 23.4557 31.8676C23.4557 24.7155 22.974 17.5049 22.974 10.4304C22.974 6.96389 22.974 10.911 22.974 12.3841C22.974 14.6548 23.4557 16.8406 23.4557 19.1284C23.4557 21.2947 23.9161 27.3084 21.0471 23.0893C19.4546 20.7475 8.75346 22.2329 5.8724 22.2329C5.47261 22.2329 3.70459 24.0009 3.70459 24.4007C3.70459 26.0199 5.05833 25.605 6.35414 25.605C9.24596 25.605 11.8664 26.0868 14.7845 26.0868C18.0802 26.0868 21.1414 25.1233 24.4192 25.1233C28.2463 25.1233 32.0041 25.0035 35.74 25.5783C36.8581 25.7503 38.2594 25.8055 39.1122 25.1233C39.55 24.773 39.5691 21.9161 39.0854 21.7779C36.4846 21.0348 32.3767 21.7512 29.7183 21.7512C26.0785 21.7512 22.4387 21.7512 18.799 21.7512C15.2921 21.7512 8.47825 20.481 6.11327 23.4372C5.79224 23.8385 10.3461 23.6781 11.0912 23.6781C13.3571 23.6781 15.6231 23.6781 17.889 23.6781C21.7964 23.6781 25.7038 23.6781 29.6113 23.6781C31.449 23.6781 33.2867 23.6781 35.1245 23.6781C36.2856 23.6781 39.0411 23.5866 36.4358 24.4007C35.599 24.6622 30.5114 24.6416 33.3313 24.6416C34.4069 24.6416 30.5195 24.6416 29.7183 24.6416" stroke="#FF0000" stroke-width="3" stroke-linecap="round"/>
<path d="M29.7183 7.2991C29.7183 8.89581 29.6297 10.5213 29.7183 12.1165C29.7868 13.3479 32.9693 13.5928 33.5722 12.8391C34.2017 12.0522 34.5041 10.4902 33.3581 10.1628C30.9186 9.46575 33.7157 9.67248 33.5722 9.60073C32.5578 9.09351 29.7385 9.51385 31.2706 11.0459C32.3668 12.1421 34.5357 12.0334 34.5357 10.4304C34.5357 8.88148 32.6088 8.72514 32.6088 10.4304C32.6088 13.0977 34.4319 9.93755 32.6088 11.153" stroke="#0047FF" stroke-width="3" stroke-linecap="round"/>
<path d="M8.04028 9.70778C9.08182 9.81193 10.0202 10.7774 10.556 11.6347C11.2949 12.8169 12.7213 12.6449 13.7141 13.294C14.79 13.9975 15.8796 14.9937 14.4099 12.9729C13.8529 12.207 13.764 11.1601 13.8211 10.1895C13.9778 7.52505 15.9088 5.46571 12.3759 7.67378C11.9542 7.93735 10.2172 9.74366 10.556 10.0825C11.5735 11.1 12.3759 9.41999 12.3759 11.6347" stroke="#0047FF" stroke-width="3" stroke-linecap="round"/>
<path d="M9.96729 37.6484C11.706 37.6484 11.2209 36.143 12.1351 35.0257C12.4137 34.6851 15.0375 32.8729 15.2396 33.5804C15.3694 34.0347 15.3039 39.843 15.1593 39.843C14.6503 39.843 14.2682 38.6119 13.3394 38.6119C11.4526 38.6119 13.5022 37.3634 14.0353 36.685C14.8048 35.7056 14.9664 34.1012 14.41 36.2032C14.2585 36.7755 13.8212 39.3485 13.8212 37.6484" stroke="#0047FF" stroke-width="3" stroke-linecap="round"/>
<path d="M29.2368 42.9475C29.2368 40.9251 29.6466 39.0022 29.7186 37.0597C29.7844 35.2811 29.5206 34.2925 31.0567 35.8286C32.0982 36.87 32.8956 37.6484 34.5359 37.6484C36.8762 37.6484 35.3637 38.9549 34.0542 39.6824C33.0532 40.2385 30.5895 43.7763 30.682 40.5389C30.7027 39.8139 31.6455 35.2611 31.6455 37.6484C31.6455 38.6792 31.9513 41.4165 32.9836 39.0936C33.9956 36.8167 33.0907 40.4101 33.0907 40.0571" stroke="#0047FF" stroke-width="3" stroke-linecap="round"/>
</svg>
