<svg width="309" height="298" viewBox="0 0 309 298" fill="none" xmlns="http://www.w3.org/2000/svg">
<path d="M71.2722 40.5091C78.3454 89.0683 83.2966 137.986 88.2822 186.842C90.4523 208.107 103.163 271.014 98.5828 250.135" stroke="#A0A0A0" stroke-width="4.96361" stroke-linecap="round"/>
<path d="M151.469 50.0805C158.262 98.5716 159.525 148.283 168.389 196.433C170.897 210.056 174.109 223.489 174.643 237.411C174.737 239.86 174.137 253.95 172.144 252.673" stroke="#A0A0A0" stroke-width="4.96361" stroke-linecap="round"/>
<path d="M40.4448 132.16C50.5941 129.934 60.5937 129.286 70.9532 128.486C106.479 125.743 142.158 121.078 177.373 115.704C210.811 110.602 244.915 107.679 277.963 100.429" stroke="#A0A0A0" stroke-width="4.96361" stroke-linecap="round"/>
<path d="M49.2454 203.234C57.6307 206.506 72.1239 202.768 80.8354 202.341C112.86 200.771 144.619 200.389 176.591 197.275C208.467 194.169 241.016 190.027 272.342 183.155" stroke="#A0A0A0" stroke-width="4.96361" stroke-linecap="round"/>
<path d="M111.279 145.484C116.853 165.631 145.636 185.52 166.385 187.724" stroke="#A0A0A0" stroke-width="4.96361" stroke-linecap="round"/>
<path d="M142.567 148.806C133.688 152.277 130.078 168.217 126.484 176.103C122.696 184.418 118.768 192.39 118.5 201.624" stroke="#A0A0A0" stroke-width="4.96361" stroke-linecap="round"/>
<path d="M216.378 59.6103C214.103 49.2414 189.235 53.2333 185.657 60.596C180.873 70.4398 195.247 90.0766 204.877 92.3158C217.206 95.1826 226.507 67.0897 227.014 58.2202C227.812 44.2526 200.797 51.1438 192.833 52.891" stroke="#A0A0A0" stroke-width="4.96361" stroke-linecap="round"/>
<path d="M190.4 219.806C195.084 235.508 228.553 250.485 243.928 247.113" stroke="#A0A0A0" stroke-width="4.96361" stroke-linecap="round"/>
<path d="M219.003 218.625C212.097 230.047 198.866 250.656 201.97 264.806" stroke="#A0A0A0" stroke-width="4.96361" stroke-linecap="round"/>
<path d="M45.2719 76.7728C43.7617 72.5077 35.6533 101.174 35.3148 104.046C34.0484 114.794 40.3309 122.241 51.0564 117.76C66.0461 111.496 59.4501 91.9122 56.2148 80.2201C52.9363 68.3716 32.853 79.0555 28.1646 83.9212" stroke="#A0A0A0" stroke-width="4.96361" stroke-linecap="round"/>
<path d="M95.8418 67.3769C100.165 83.2502 118.243 98.4259 131.709 107.046" stroke="#A0A0A0" stroke-width="4.96361" stroke-linecap="round"/>
<path d="M118.676 70.8566C105.111 86.206 101.345 106.114 96.5847 124.938" stroke="#A0A0A0" stroke-width="4.96361" stroke-linecap="round"/>
<path d="M150.26 230.31C149.275 227.528 145.182 229.857 143.643 231.101C138.303 235.415 137.537 241.964 138.9 248.176C139.862 252.563 140.819 269.647 149.549 264.044C160.949 256.726 167.691 243.164 163.681 230.006C160.343 219.05 149.236 222.093 143.07 228.491" stroke="#A0A0A0" stroke-width="4.96361" stroke-linecap="round"/>
<path d="M51.8896 223.027C55.41 239.075 77.2902 244.442 90.1284 250.292" stroke="#A0A0A0" stroke-width="4.96361" stroke-linecap="round"/>
<path d="M80.1371 220.226C71.4999 223.152 62.3029 242.914 58.7599 250.477C54.6638 259.22 46.8045 269.501 49.0374 279.679" stroke="#A0A0A0" stroke-width="4.96361" stroke-linecap="round"/>
<path d="M63.5929 152.549C59.5526 134.131 16.5819 172.773 43.4118 183.952C56.9546 189.594 62.9674 168.702 64.7333 159.467C67.4862 145.07 61.4252 139.442 47.7916 142.433" stroke="#A0A0A0" stroke-width="4.96361" stroke-linecap="round"/>
<path d="M184.526 131.113C201.839 145.116 219.743 158.572 239.584 168.836C245.473 171.882 252.124 175.728 258.871 175.924" stroke="#A0A0A0" stroke-width="4.96361" stroke-linecap="round"/>
<path d="M233.633 130.527C220.019 142.264 209.972 159.395 202.811 175.771C200.667 180.676 199.573 193.325 195.5 196.617" stroke="#A0A0A0" stroke-width="4.96361" stroke-linecap="round"/>
</svg>
