<svg width="145" height="138" viewBox="0 0 145 138" fill="none" xmlns="http://www.w3.org/2000/svg">
<path d="M59.8529 9.40769C58.4972 15.1152 34.3564 90.6292 39.6997 91.6747" stroke="#A0A0A0" stroke-width="3.63739" stroke-linecap="round"/>
<path d="M96.0168 21.5547C94.4325 29.6521 91.3374 36.6591 87.5649 44.0173C80.1488 58.482 72.9249 73.0642 65.3733 87.4571C61.1663 95.4753 57.5157 103.962 53.0034 111.801C52.2022 113.193 49.9907 117.277 49.5526 113.887" stroke="#A0A0A0" stroke-width="3.63739" stroke-linecap="round"/>
<path d="M17.5513 23.4442C17.5609 25.7506 19.7913 27.347 21.6061 28.3509C35.4483 36.0077 52.2585 39.831 67.4362 43.7978C90.5463 49.8377 113.731 55.4477 137.172 60.0341" stroke="#A0A0A0" stroke-width="3.63739" stroke-linecap="round"/>
<path d="M33.1377 63.0064C37.4689 67.667 47.3951 70.1998 52.9789 72.185C75.9436 80.35 99.2553 90.1422 123.262 94.8392" stroke="#A0A0A0" stroke-width="3.63739" stroke-linecap="round"/>
<path d="M68.2403 54.661C71.3539 50.2198 67.2925 47.1746 62.5515 48.026C53.8786 49.5833 53.8435 66.0585 57.0112 71.7344C58.9981 75.2946 62.517 76.6571 66.5507 75.9674C73.1819 74.8338 74.792 67.8287 75.8745 62.2964C77.6896 53.0194 73.2011 48.6244 64.1206 49.798" stroke="#A0A0A0" stroke-width="3.63739" stroke-linecap="round"/>
<path d="M31.7156 2.88815C29.3031 15.2179 41.5748 26.0698 48.8313 34.6356" stroke="#A0A0A0" stroke-width="3.63739" stroke-linecap="round"/>
<path d="M45.5824 4.58704C40.2431 9.01041 37.7566 16.4617 33.5192 21.8917C29.778 26.686 25.8044 31.2808 21.3098 35.3362" stroke="#A0A0A0" stroke-width="3.63739" stroke-linecap="round"/>
<path d="M35.7923 44.2553C28.8142 39.5006 23.4085 41.6372 18.7825 48.2522C15.008 53.6497 12.5964 58.3179 20.2064 59.4057C28.1361 60.5392 32.603 55.0188 33.0293 47.4336C33.3778 41.2338 24.7496 40.1085 20.354 40.2204" stroke="#A0A0A0" stroke-width="3.63739" stroke-linecap="round"/>
<path d="M97.3547 61.3716C98.8007 62.3061 99.1192 64.4101 99.7378 65.8948C101.799 70.8422 104.9 75.2463 108.588 79.1212C109.885 80.483 121.077 90.3138 119.716 87.0457" stroke="#A0A0A0" stroke-width="3.63739" stroke-linecap="round"/>
<path d="M115.32 62.8583C110.741 61.9624 104.028 71.9263 100.848 74.6204C97.4496 77.499 93.1058 81.3851 89.0512 83.0745" stroke="#A0A0A0" stroke-width="3.63739" stroke-linecap="round"/>
<path d="M122.816 34.9121C123.152 33.1943 124.22 30.2557 121.818 29.6457C119.936 29.1675 116.92 28.1113 115.311 29.4993C112.918 31.563 106.586 41.8466 110.58 44.4634C117.297 48.8655 125.586 47.9396 127.943 39.5215C129.214 34.9842 127.822 30.8203 122.795 29.8368" stroke="#A0A0A0" stroke-width="3.63739" stroke-linecap="round"/>
<path d="M18.7612 79.464C22.261 86.7037 29.3414 95.0232 30.377 103.036" stroke="#A0A0A0" stroke-width="3.63739" stroke-linecap="round"/>
<path d="M26.9583 79.0393C23.4739 84.902 18.8032 89.8707 14.7064 95.2928C12.9088 97.6719 9.85472 102.72 6.9541 103.524" stroke="#A0A0A0" stroke-width="3.63739" stroke-linecap="round"/>
<path d="M54.7132 87.5125C55.5287 83.3447 50.8338 83.6642 49.0268 86.6253C45.9496 91.6678 47.2071 97.7152 53.0308 100.143C68.4407 106.567 66.3783 77.2689 55.86 81.6515" stroke="#A0A0A0" stroke-width="3.63739" stroke-linecap="round"/>
<path d="M63.76 10.1722C65.9554 21.1495 75.3929 29.9864 81.4492 38.9891" stroke="#A0A0A0" stroke-width="3.63739" stroke-linecap="round"/>
<path d="M81.5344 12.6356C76.2992 13.1516 70.7856 21.2946 67.9222 25.1858C66.6051 26.9757 66.5128 31.1197 64.6306 31.6415" stroke="#A0A0A0" stroke-width="3.63739" stroke-linecap="round"/>
<path d="M89.7303 105.521C91.164 93.2647 75.5587 108.398 72.8574 111.122C68.4272 115.589 64.1854 124.693 72.5128 127.282C81.2497 129.999 93.5465 118.893 93.633 110.341C93.6941 104.289 85.4463 99.5298 80.3442 101.656" stroke="#A0A0A0" stroke-width="3.63739" stroke-linecap="round"/>
</svg>
