<svg width="26" height="33" viewBox="0 0 26 33" fill="none" xmlns="http://www.w3.org/2000/svg">
<path d="M15.4936 6.57568C12.6956 3.42801 16.388 2.12247 19.3842 2.35473C24.1896 2.72725 24.6245 7.60831 24.7246 11.5124C24.9744 21.2539 16.2362 29.6542 6.90485 31.3508" stroke="white" stroke-width="2" stroke-linecap="round"/>
<path d="M13.8419 5.91502C13.6631 2.87497 8.23203 1.25304 5.84045 1.0334C3.76082 0.842417 1.84753 1.43898 1.19741 3.63938C0.220468 6.94594 3.08486 9.2493 5.06967 11.3839C8.83262 15.4309 12.151 19.8011 9.69436 25.5332C8.98149 27.1966 8.04466 28.4111 6.90486 29.7725C6.44942 30.3165 5.79934 30.7033 5.58352 31.3508" stroke="white" stroke-width="2" stroke-linecap="round"/>
</svg>
