<svg width="60" height="60" viewBox="0 0 60 60" fill="none" xmlns="http://www.w3.org/2000/svg">
<rect width="60" height="60" fill="#D9D9D9"/>
<path d="M18.1834 34.9873V22.8097H22.2981C23.2495 22.8097 24.0304 22.9722 24.6409 23.2973C25.2514 23.6184 25.7033 24.0604 25.9966 24.6233C26.2899 25.1862 26.4366 25.8264 26.4366 26.5439C26.4366 27.2614 26.2899 27.8976 25.9966 28.4526C25.7033 29.0075 25.2533 29.4436 24.6468 29.7607C24.0403 30.0739 23.2654 30.2304 22.3219 30.2304H18.9921V28.8985H22.2743C22.9244 28.8985 23.4477 28.8034 23.8441 28.6131C24.2445 28.4228 24.5339 28.1533 24.7122 27.8044C24.8946 27.4516 24.9858 27.0314 24.9858 26.5439C24.9858 26.0563 24.8946 25.6301 24.7122 25.2654C24.5299 24.9008 24.2385 24.6193 23.8382 24.4211C23.4378 24.2189 22.9086 24.1179 22.2506 24.1179H19.6581V34.9873H18.1834ZM23.9155 29.5169L26.9123 34.9873H25.1998L22.2506 29.5169H23.9155ZM28.8938 22.8097H30.6539L34.7923 32.9181H34.9351L39.0735 22.8097H40.8336V34.9873H39.4541V25.7352H39.3352L35.5297 34.9873H34.1977L30.3922 25.7352H30.2733V34.9873H28.8938V22.8097Z" fill="black"/>
</svg>
