<svg width="60" height="60" viewBox="0 0 60 60" fill="none" xmlns="http://www.w3.org/2000/svg">
<rect width="60" height="60" fill="#D9D9D9"/>
<path d="M18.1834 34.9873V22.8097H22.2981C23.2494 22.8097 24.0304 22.9722 24.6408 23.2973C25.2513 23.6184 25.7032 24.0604 25.9965 24.6233C26.2899 25.1862 26.4365 25.8264 26.4365 26.5439C26.4365 27.2614 26.2899 27.8976 25.9965 28.4526C25.7032 29.0075 25.2533 29.4436 24.6468 29.7607C24.0403 30.0739 23.2653 30.2304 22.3218 30.2304H18.992V28.8985H22.2743C22.9244 28.8985 23.4476 28.8034 23.844 28.6131C24.2444 28.4228 24.5338 28.1533 24.7122 27.8044C24.8945 27.4516 24.9857 27.0314 24.9857 26.5439C24.9857 26.0563 24.8945 25.6301 24.7122 25.2654C24.5298 24.9008 24.2385 24.6193 23.8381 24.4211C23.4377 24.2189 22.9085 24.1179 22.2505 24.1179H19.658V34.9873H18.1834ZM23.9154 29.5169L26.9122 34.9873H25.1998L22.2505 29.5169H23.9154ZM28.8938 22.8097H30.6538L34.7923 32.9181H34.935L39.0735 22.8097H40.8335V34.9873H39.454V25.7352H39.3351L35.5296 34.9873H34.1977L30.3922 25.7352H30.2733V34.9873H28.8938V22.8097Z" fill="black"/>
<path d="M31.4935 18.5757C28.6956 15.428 32.3879 14.1225 35.3841 14.3547C40.1896 14.7272 40.6244 19.6083 40.7245 23.5124C40.9743 33.2539 32.2361 41.6542 22.9048 43.3508" stroke="white" stroke-width="2" stroke-linecap="round"/>
<path d="M29.8419 17.915C29.6631 14.875 24.232 13.253 21.8404 13.0334C19.7608 12.8424 17.8475 13.439 17.1974 15.6394C16.2205 18.9459 19.0849 21.2493 21.0697 23.3839C24.8326 27.4309 28.151 31.8011 25.6944 37.5332C24.9815 39.1966 24.0447 40.4111 22.9049 41.7725C22.4494 42.3165 21.7993 42.7033 21.5835 43.3508" stroke="white" stroke-width="2" stroke-linecap="round"/>
</svg>
