<svg width="60" height="60" viewBox="0 0 60 60" fill="none" xmlns="http://www.w3.org/2000/svg"><g clip-path="url(#clip0_295_2)"><path d="M9.44991 13.1813C10.1733 11.4938 11.3763 10.0558 12.9095 9.04584C14.4428 8.03588 16.2389 7.49837 18.0749 7.5H41.9324C45.6824 7.5 49.0724 9.735 50.5499 13.1813L53.5199 20.1112C53.8012 20.7675 54.3074 21.3075 54.9449 21.6263C56.8199 22.5638 58.1512 24.3075 58.5637 26.3587L59.8199 32.655C59.9449 33.26 60.0062 33.8725 60.0037 34.4925V36.0412C60.0037 39.0938 58.5412 41.8275 56.2537 43.53V50.625C56.2537 51.1223 56.0561 51.5992 55.7045 51.9508C55.3529 52.3025 54.8759 52.5 54.3787 52.5H46.8787C46.3814 52.5 45.9045 52.3025 45.5528 51.9508C45.2012 51.5992 45.0037 51.1223 45.0037 50.625V45.6075C40.1587 45.7875 34.7099 45.9375 30.0037 45.9375C25.2974 45.9375 19.8487 45.7875 15.0037 45.6075V50.625C15.0037 51.1223 14.8061 51.5992 14.4545 51.9508C14.1029 52.3025 13.6259 52.5 13.1287 52.5H5.62866C5.13138 52.5 4.65447 52.3025 4.30284 51.9508C3.95121 51.5992 3.75366 51.1223 3.75366 50.625V43.53C1.46616 41.8275 0.00366211 39.0938 0.00366211 36.0412V34.4925C0.00429147 33.8754 0.06584 33.26 0.187412 32.655L1.44366 26.355C1.85616 24.3075 3.18741 22.56 5.05866 21.6263C5.70053 21.308 6.20733 20.7706 6.48741 20.1112L9.45741 13.1813H9.44991ZM11.2499 37.5C12.2445 37.5 13.1983 37.1049 13.9016 36.4016C14.6048 35.6984 14.9999 34.7446 14.9999 33.75C14.9999 32.7554 14.6048 31.8016 13.9016 31.0984C13.1983 30.3951 12.2445 30 11.2499 30C10.2554 30 9.30152 30.3951 8.59826 31.0984C7.895 31.8016 7.49991 32.7554 7.49991 33.75C7.49991 34.7446 7.895 35.6984 8.59826 36.4016C9.30152 37.1049 10.2554 37.5 11.2499 37.5ZM48.7499 37.5C49.7445 37.5 50.6983 37.1049 51.4016 36.4016C52.1048 35.6984 52.4999 34.7446 52.4999 33.75C52.4999 32.7554 52.1048 31.8016 51.4016 31.0984C50.6983 30.3951 49.7445 30 48.7499 30C47.7553 30 46.8015 30.3951 46.0983 31.0984C45.395 31.8016 44.9999 32.7554 44.9999 33.75C44.9999 34.7446 45.395 35.6984 46.0983 36.4016C46.8015 37.1049 47.7553 37.5 48.7499 37.5ZM22.4999 30C21.5054 30 20.5515 30.3951 19.8483 31.0984C19.145 31.8016 18.7499 32.7554 18.7499 33.75C18.7499 34.7446 19.145 35.6984 19.8483 36.4016C20.5515 37.1049 21.5054 37.5 22.4999 37.5H37.4999C38.4945 37.5 39.4483 37.1049 40.1516 36.4016C40.8548 35.6984 41.2499 34.7446 41.2499 33.75C41.2499 32.7554 40.8548 31.8016 40.1516 31.0984C39.4483 30.3951 38.4945 30 37.4999 30H22.4999ZM10.8974 19.4588C10.7508 19.7612 10.6865 20.0969 10.711 20.4321C10.7355 20.7674 10.8479 21.0902 11.0369 21.3681C11.2258 21.6461 11.4847 21.8693 11.7874 22.0154C12.0901 22.1614 12.426 22.2251 12.7612 22.2C16.1737 21.9263 25.3237 21.5625 29.9999 21.5625C34.6762 21.5625 43.8299 21.9263 47.2387 22.2C47.5738 22.2251 47.9097 22.1614 48.2124 22.0154C48.5151 21.8693 48.774 21.6461 48.963 21.3681C49.1519 21.0902 49.2643 20.7674 49.2888 20.4321C49.3133 20.0969 49.249 19.7612 49.1024 19.4588L45.5174 12.285C45.3615 11.9739 45.1222 11.7124 44.8262 11.5296C44.5301 11.3468 44.1891 11.25 43.8412 11.25H16.1587C15.8107 11.25 15.4697 11.3468 15.1737 11.5296C14.8776 11.7124 14.6383 11.9739 14.4824 12.285L10.8974 19.4588Z" fill="white"/></g><defs><clipPath id="clip0_295_2"><rect width="60" height="60" fill="white"/></clipPath></defs></svg>
