<svg width="60" height="60" viewBox="0 0 60 60" fill="none" xmlns="http://www.w3.org/2000/svg"><g clip-path="url(#clip0_285_97)"><path d="M0 1.87502C0 1.37773 0.197544 0.900821 0.549175 0.54919C0.900806 0.197559 1.37772 1.52588e-05 1.875 1.52588e-05L58.125 1.52588e-05C58.6223 1.52588e-05 59.0992 0.197559 59.4508 0.54919C59.8025 0.900821 60 1.37773 60 1.87502V13.125C60 13.6223 59.8025 14.0992 59.4508 14.4508C59.0992 14.8025 58.6223 15 58.125 15H52.5V22.5H58.125C58.6223 22.5 59.0992 22.6976 59.4508 23.0492C59.8025 23.4008 60 23.8777 60 24.375V35.625C60 36.1223 59.8025 36.5992 59.4508 36.9508C59.0992 37.3025 58.6223 37.5 58.125 37.5H52.5V45H58.125C58.6223 45 59.0992 45.1976 59.4508 45.5492C59.8025 45.9008 60 46.3777 60 46.875V58.125C60 58.6223 59.8025 59.0992 59.4508 59.4508C59.0992 59.8025 58.6223 60 58.125 60H1.875C1.37772 60 0.900806 59.8025 0.549175 59.4508C0.197544 59.0992 0 58.6223 0 58.125V46.875C0 46.3777 0.197544 45.9008 0.549175 45.5492C0.900806 45.1976 1.37772 45 1.875 45H7.5V37.5H1.875C1.37772 37.5 0.900806 37.3025 0.549175 36.9508C0.197544 36.5992 0 36.1223 0 35.625V24.375C0 23.8777 0.197544 23.4008 0.549175 23.0492C0.900806 22.6976 1.37772 22.5 1.875 22.5H7.5V15H1.875C1.37772 15 0.900806 14.8025 0.549175 14.4508C0.197544 14.0992 0 13.6223 0 13.125V1.87502ZM11.25 15V22.5H28.125V15H11.25ZM31.875 15V22.5H48.75V15H31.875ZM11.25 37.5V45H28.125V37.5H11.25ZM31.875 37.5V45H48.75V37.5H31.875ZM3.75 3.75002V11.25H16.875V3.75002H3.75ZM20.625 3.75002V11.25H39.375V3.75002H20.625ZM43.125 3.75002V11.25H56.25V3.75002H43.125ZM3.75 26.25V33.75H16.875V26.25H3.75ZM20.625 26.25V33.75H39.375V26.25H20.625ZM43.125 26.25V33.75H56.25V26.25H43.125ZM3.75 48.75V56.25H16.875V48.75H3.75ZM20.625 48.75V56.25H39.375V48.75H20.625ZM43.125 48.75V56.25H56.25V48.75H43.125Z" fill="white"/></g><defs><clipPath id="clip0_285_97"><rect width="60" height="60" fill="white"/></clipPath></defs></svg>
