<svg width="165" height="338" viewBox="0 0 165 338" fill="none" xmlns="http://www.w3.org/2000/svg">
<path d="M65.2367 146.434C65.2367 143.217 62.2158 140.866 60.5495 138.384C57.5449 133.908 53.8327 129.929 51.2771 125.138C48.0626 119.11 43.5993 113.737 40.0176 107.917C34.9411 99.6678 30.061 91.4114 24.6569 83.3604C20.2717 76.8273 16.5681 69.8303 12.3021 63.2106C10.0499 59.7158 6.95749 56.4898 4.96561 52.8682C4.473 51.9726 3.38623 50.0847 3.38623 48.9962C3.38623 47.1582 9.51861 46.2756 10.6718 46.1177C22.6123 44.482 34.4747 42.5503 46.437 40.9719C53.2542 40.0725 59.7088 37.7877 66.2047 35.6224C74.2266 32.9485 82.4614 30.5307 90.6341 28.3624C95.5152 27.0674 99.5743 24.9234 104.67 24.9234C109.514 24.9234 113.828 24.4111 118.528 23.0893C121.558 22.2371 124.165 20.3617 127.138 19.523C128.294 19.1971 130.647 19.1108 131.622 18.4021C132.415 17.8251 133.52 18.113 134.475 17.6888C135.475 17.2442 136.605 16.1617 137.863 16.7208C139.439 17.4213 135.59 24.9775 135.162 26.0697C134.396 28.0272 133.324 29.5233 131.978 31.1136C130.569 32.7795 130.399 34.5015 129.431 36.3867C127.8 39.5623 126.934 42.1592 126.221 45.761C125.134 51.2559 123.554 57.022 123.47 62.6247C123.281 75.2193 123.47 87.8315 123.47 100.428C123.47 108.848 122.094 117.207 122.094 125.571C122.094 127.839 121.517 130.996 122.349 133.136C122.924 134.613 122.807 137.327 124.387 137.722" stroke="white" stroke-width="2" stroke-linecap="round"/>
<path d="M89.0803 68.0252C92.0583 64.6749 87.4087 62.9604 84.7243 62.0898C80.6946 60.7829 76.4365 58.5846 73.5922 62.5229C71.3958 65.564 72.2564 72.0855 73.9234 75.1069C76.9708 80.6304 81.6428 85.1319 85.5649 90.0346C89.525 94.9847 91.0833 100.986 93.2071 106.72C93.8486 108.452 93.6656 110.27 93.6656 112.095C93.6656 114.009 92.3645 114.811 91.3729 116.273C89.9916 118.308 86.2223 123.049 83.3487 123.049C81.6291 123.049 79.4512 122.178 79.4512 120.298" stroke="white" stroke-width="2" stroke-linecap="round"/>
<path d="M81.2853 55.1863C80.7261 61.3369 81.4075 67.3447 81.8457 73.5275C82.4684 82.3145 82.3337 91.1235 83.3741 99.8929C84.5213 109.562 86.3291 119.26 86.3291 129.01" stroke="white" stroke-width="2" stroke-linecap="round"/>
<path d="M1.95972 46.4743C2.97964 44.5478 4.16379 42.3453 6.29027 41.9909C13.6277 40.768 21.6071 41.1607 28.5289 38.2463C47.7307 30.1613 69.6585 28.6882 90.0992 26.299C98.8828 25.2724 108.156 23.3384 116.49 20.3382C120.293 18.969 124.158 17.9945 128.03 16.8737C129.901 16.3321 132.488 15.8524 134.22 15.0651C134.971 14.7236 136.767 14.0068 136.767 14.6066C136.767 15.8529 136.03 17.0386 134.933 17.587" stroke="white" stroke-width="2" stroke-linecap="round"/>
<path d="M5.16943 39.1378C5.16943 33.2283 9.44491 29.5844 12.0474 24.6687C12.6539 23.523 13.6463 22.8793 14.5948 22.0704C15.5954 21.2168 16.0211 19.4044 16.6327 18.2493C17.1971 17.1831 18.3262 15.2938 19.3838 14.7339C22.8286 12.9102 28.5253 13.9006 32.3246 13.5621C41.1009 12.78 49.5659 11.1796 58.2569 9.79196C75.5196 7.03573 92.4931 6.35198 109.943 5.63972C115.475 5.41392 120.954 4.5626 126.476 4.26413C130.937 4.02299 135.2 2.45549 139.748 2.45549C141.65 2.45549 147.313 0.56788 147.313 3.37255C147.313 6.16026 145.623 7.5241 144.333 9.81743C143.399 11.4782 142.923 13.052 141.123 13.7149C138.952 14.515 136.847 16.5101 135.85 18.504" stroke="white" stroke-width="2" stroke-linecap="round"/>
<path d="M123.47 135.429C124.913 135.429 126.001 135.882 126.247 134.283C126.571 132.176 126.68 130.256 126.68 128.092C126.68 121.688 127.138 115.289 127.138 108.834C127.138 96.0144 126.124 82.4637 129.431 70.0631C130.756 65.095 130.776 59.856 132.386 54.9316C133.933 50.1988 134.556 44.9576 135.748 40.0549C136.333 37.6516 136.767 35.1843 136.767 32.7184C136.767 30.6893 137.684 28.8369 137.684 26.6556C137.684 23.4503 138.143 20.3541 138.143 17.1284" stroke="white" stroke-width="2" stroke-linecap="round"/>
<path d="M146.396 2.45551C146.456 2.92808 147.394 3.24945 147.772 3.6273C148.308 4.16305 148.418 4.90227 148.587 5.66521C149.144 8.16895 149.148 10.8006 149.148 13.3583C149.148 18.4307 146.954 23.0417 146.855 28.0822C146.705 35.7384 146.396 43.4529 146.396 51.1615C146.396 53.0466 146.396 54.9316 146.396 56.8167C146.396 58.9204 145.538 60.6947 145.479 62.7776C145.336 67.881 145.396 73.0378 144.792 78.1128C143.813 86.3347 143.673 94.5056 142.04 102.67C141.485 105.449 139.923 108.031 139.544 110.872C139.278 112.868 138.885 114.91 138.372 116.859C137.365 120.686 136.229 124.438 135.366 128.322C134.724 131.211 133.822 133.331 131.724 135.429" stroke="white" stroke-width="2" stroke-linecap="round"/>
<path d="M5.16943 35.0111C14.7809 35.0111 24.6108 33.7412 34.1077 32.3618C42.0814 31.2036 50.0982 30.89 57.9258 28.77C63.0889 27.3717 69.0429 26.5531 73.9488 24.363C77.3214 22.8574 81.4967 21.6537 85.1828 21.2552C89.776 20.7586 94.002 19.8118 98.4547 18.7842C103.748 17.5627 109.298 17.4411 114.605 16.2114C120.277 14.8971 125.913 14.1329 131.673 13.2564C134.771 12.7849 140.159 14.2561 142.728 12.5432" stroke="white" stroke-width="2" stroke-linecap="round"/>
<path d="M10.6718 25.382C16.8843 25.382 22.926 24.7654 29.0639 23.7771C39.6835 22.0672 50.3785 20.8125 61.0081 19.1663C70.4054 17.711 80.0407 16.614 89.5133 15.7528C96.7311 15.0967 103.695 13.1242 110.988 13.0017C118.973 12.8675 127.388 12.5041 135.29 11.2695C137.886 10.8637 140.306 9.69568 142.932 9.33344C144.559 9.10908 149.414 8.41638 147.772 8.41638" stroke="white" stroke-width="2" stroke-linecap="round"/>
<path d="M16.6327 18.504C17.3395 17.4438 19.9072 17.652 20.9632 17.5615C25.301 17.1897 29.6205 16.6242 33.9549 16.2114C43.1894 15.3319 52.4479 14.8146 61.6704 13.9187C74.4242 12.6798 87.2786 11.9565 100.085 11.6516C114.496 11.3084 129.151 10.0911 143.187 6.58228" stroke="white" stroke-width="2" stroke-linecap="round"/>
<path d="M138.601 17.1284C139.027 22.6589 139.977 27.8294 139.977 33.4317C139.977 40.9832 140.46 48.727 139.875 56.2562C139.451 61.7135 139.919 67.256 139.264 72.6869C138.65 77.7693 137.185 82.6497 136.207 87.64C134.526 96.2138 134.741 104.871 133.66 113.521C133.353 115.973 133.427 118.494 133.201 120.96C133.057 122.529 132.289 123.588 132.157 125.112C132.098 125.791 131.724 129.709 131.724 127.175" stroke="white" stroke-width="2" stroke-linecap="round"/>
<path d="M142.27 11.6261C142.954 20.5197 143.187 29.2548 143.187 38.2208C143.187 45.358 142.728 52.4348 142.728 59.5679C142.728 63.6765 142.787 67.7891 142.728 71.8972C142.648 77.5313 141.001 82.9932 139.773 88.4297C138.984 91.9238 139.06 96.4769 139.06 100.071C139.06 104.029 138.427 107.686 138.168 111.56C138.06 113.19 138.067 115.468 137.481 116.986C136.901 118.486 136.092 119.46 135.876 121.189C135.63 123.159 134.989 125.744 133.558 127.175" stroke="white" stroke-width="2" stroke-linecap="round"/>
<path d="M118.885 289.036C118.885 292.461 120.35 295.661 119.725 299.2C118.875 304.017 115.742 309.054 112.822 312.88C110.723 315.63 106.379 315.631 103.295 315.631C101.908 315.631 95.7008 314.655 96.5186 317.108C97.0844 318.806 100.981 321.342 102.632 321.821C106.906 323.062 111.617 322.509 116.032 322.509C122.067 322.509 127.801 321.602 133.787 321.159C137.783 320.863 141.602 319.015 145.021 317.108C146.966 316.024 147.59 314.51 148.715 312.65C149.635 311.128 150.982 310.122 150.982 308.294C150.982 303.684 150.823 299.882 147.313 296.373C143.462 292.521 137.537 292.982 133.532 289.979C132.069 288.881 132.151 288.938 131.367 287.457C129.884 284.656 126.213 284.909 123.47 284.909" stroke="white" stroke-width="2" stroke-linecap="round"/>
<path d="M116.592 288.119C116.592 290.755 116.134 293.431 116.134 296.118C116.134 299.657 115.883 301.922 113.28 304.524C108.92 308.885 103.506 308.753 97.8178 308.753C96.2551 308.753 96.0023 311.129 95.4997 312.319C94.2624 315.25 92.127 317.263 90.6852 319.987C89.9321 321.409 88.6388 323.966 90.303 325.26C95.519 329.317 104.79 330.713 111.09 330.762C116.367 330.804 121.602 330.712 126.45 328.495C131.155 326.344 136.67 325.894 141.607 324.445C145.793 323.217 150.038 322.039 153.682 319.554C156.255 317.799 156.721 314.475 156.917 311.53C157.139 308.209 157.421 304.21 156.841 300.958C156.292 297.883 151.984 294.568 149.351 293.214C145.077 291.016 139.961 290.242 135.29 289.393C132.194 288.83 129.284 287.12 126.221 286.285" stroke="white" stroke-width="2" stroke-linecap="round"/>
<path d="M112.465 287.661C112.465 290.535 115.313 296.166 112.465 297.748C111.272 298.411 110.462 299.706 109.23 300.245C107.85 300.848 106.142 300.82 104.67 300.984C102.161 301.262 97.4873 301.465 95.6015 303.149C93.2049 305.289 94.2089 307.019 93.207 309.925C92.0791 313.196 91.8983 317.908 91.8314 321.388C91.7974 323.155 90.7948 325.619 91.4238 327.349C93.1098 331.986 101.461 331.501 105.129 331.654C118.528 332.212 131.231 336.265 144.741 336.265C151.649 336.265 156.424 336.196 160.305 329.845C161.788 327.418 161.881 324.575 162.241 321.847C162.642 318.813 163.82 316.215 163.82 313.109C163.82 308.608 163.946 304.842 160.611 301.417C157.968 298.703 156.056 295.259 153.274 292.73C150.643 290.337 147.787 287.785 144.358 286.744C139.678 285.323 134.274 285.827 129.431 285.827" stroke="white" stroke-width="2" stroke-linecap="round"/>
</svg>
