<svg width="52" height="157" viewBox="0 0 52 157" fill="none" xmlns="http://www.w3.org/2000/svg">
<path d="M49.1069 34.0746C49.2108 30.5411 52.0036 23.1171 48.9181 20.4831C45.0917 17.2167 38.3909 14.8077 33.4389 14.0649C27.5013 13.1743 9.52606 11.7837 8.42684 20.5775C6.52935 35.7575 17.4318 44.9865 25.3218 56.8214C35.3247 71.8258 44.6694 86.6368 47.0304 105.052C51.2141 137.685 -6.60895 129.867 3.23565 100.333" stroke="white" stroke-width="3" stroke-linecap="round"/>
<path d="M32.1174 1.79486C29.7762 2.67284 28.6603 14.9264 27.7757 17.8403C24.7057 27.9533 24.0511 38.7209 23.5284 49.1762C22.5213 69.317 21.9238 89.2786 21.9238 109.488C21.9238 124.559 21.9238 139.629 21.9238 154.699" stroke="white" stroke-width="3" stroke-linecap="round"/>
</svg>
