<svg width="1336" height="157" viewBox="0 0 1336 157" fill="none" xmlns="http://www.w3.org/2000/svg">
<g filter="url(#filter0_f_22_95)">
<path d="M60.0008 83.1388C60.0008 75.1462 59.6615 69.2618 73.022 66.3121C99.6256 60.4386 132.963 58.2801 160.608 61.4807C178.868 63.5948 186.337 66.3378 197.215 75.5584C212.602 88.6012 230.431 93.5988 254.582 94.8008C288.895 96.5085 330.242 97.5357 362.928 89.1364C396.271 80.5683 430.063 72.5145 465.623 68.9777C507.265 64.8362 548.153 63.3671 590.185 63.6465C619.065 63.8385 640.468 72.0653 665.732 80.2232C700.588 91.4784 738.335 93.6346 776.658 93.6346C818.802 93.6346 865.169 97.4257 906.379 90.3026C940.437 84.4156 973.195 76.9031 1007.85 72.3097C1047.62 67.0373 1088.71 66.6453 1129.09 66.6453C1156.07 66.6453 1171.23 66.1801 1193.21 77.2244C1201.99 81.6336 1208.44 88.2184 1219.13 90.6358C1231.12 93.3444 1244.18 95.3554 1256.72 96.3002C1299.46 99.5205 1334.02 91.455 1369 75.6417" stroke="#131313" stroke-width="80" stroke-linecap="round"/>
</g>
<defs>
<filter id="filter0_f_22_95" x="-0.00387573" y="0.000305176" width="1429.01" height="157" filterUnits="userSpaceOnUse" color-interpolation-filters="sRGB">
<feFlood flood-opacity="0" result="BackgroundImageFix"/>
<feBlend mode="normal" in="SourceGraphic" in2="BackgroundImageFix" result="shape"/>
<feGaussianBlur stdDeviation="10" result="effect1_foregroundBlur_22_95"/>
</filter>
</defs>
</svg>
